<svg id="Layer_1" data-name="Layer 1" xmlns="http://www.w3.org/2000/svg" viewBox="0 0 500 500"><defs><style>.cls-1{fill:#980101;}.cls-2{fill:#fcfbfa;}.cls-3{fill:#814543;}</style></defs><path class="cls-1" d="M959.5,789.9q-122.7,0-245.41.1c-3.42,0-4.09-.67-4.09-4.09q.16-245.91,0-491.82c0-3.42.67-4.09,4.09-4.09q245.91.17,491.82,0c3.42,0,4.09.67,4.09,4.09q-.16,245.91,0,491.82c0,3.42-.67,4.1-4.09,4.09Q1082.7,789.82,959.5,789.9Zm150.31-391.82c-6.6.12-13.32-1.78-19.76,1.13-2.62,3.55-.8,5.21,2.67,5.76s7.32.49,10.89,1.16c6.9,1.31,9.56,4.88,9.37,11.86-.2,7.72-2.15,15.11-4.34,22.44q-23.79,80-47.65,159.9c-.51,1.73-.44,3.83-2.31,5.36-.82-1.82-1.55-3.31-2.18-4.83q-35.26-85.4-70.51-170.79c-3.68-8.9-7.26-17.86-11.41-26.53-2.63-5.48-7-5.41-10.1-.13a60,60,0,0,0-4.31,9.52Q928,499.5,895.82,586.09c-2.73,7.35-5.55,14.67-8.8,23.24-1-3-1.63-4.68-2.14-6.36-12.63-41.45-25.33-82.87-37.82-124.35-6-20-12-40.08-16.29-60.56-1.8-8.55,1.59-12.47,10.44-12.84a63.27,63.27,0,0,0,6.47-.32,2.84,2.84,0,0,0,2.73-3,3,3,0,0,0-2.3-2.88,18.21,18.21,0,0,0-6.39-.81c-18.48-.28-36.92,1.57-55.42.72-10.47-.48-21-.57-31.44-.59-2.33,0-5.59.13-5.6,3.57,0,3.62,3.23,3.35,5.61,3.27,12-.37,20,4.86,24,16.21.94,2.66,2.18,5.22,3.08,7.89Q820,543.11,858,657c2.89,8.66,5.73,17.35,9.18,25.79,2.38,5.82,7,6,10.47.75A74.59,74.59,0,0,0,883,673.34c24.83-55.15,45.19-112.07,67-168.44,3-7.78,5.91-15.6,9.18-24.25,1,2.14,1.49,3.18,1.94,4.25q39.36,94.77,78.73,189.54a56.35,56.35,0,0,0,4.89,9.76c2.74,4.1,7.07,3.94,9.73-.2a32.84,32.84,0,0,0,3.35-7.21c17.43-52.46,34.72-105,52.22-157.41,10.77-32.29,21.9-64.45,33.87-96.32,4.51-12,12-18.78,25.36-17.91,4,.26,6.07-1.53,4.54-5.83-.68-1.34-1.79-1.48-3.07-1.1l-2.84-.13a9.14,9.14,0,0,0-4.84,0l-5,.09-46.12,0Z" transform="translate(-710 -290)"/><path class="cls-2" d="M1173.75,399.32c1.53,4.3-.52,6.09-4.54,5.83-13.35-.87-20.85,5.89-25.36,17.91-12,31.87-23.1,64-33.87,96.32-17.5,52.44-34.79,105-52.22,157.41a32.84,32.84,0,0,1-3.35,7.21c-2.66,4.14-7,4.3-9.73.2a56.35,56.35,0,0,1-4.89-9.76q-39.4-94.76-78.73-189.54c-.45-1.07-1-2.11-1.94-4.25-3.27,8.65-6.18,16.47-9.18,24.25-21.78,56.37-42.14,113.29-67,168.44a74.59,74.59,0,0,1-5.29,10.15c-3.44,5.27-8.09,5.07-10.47-.75-3.45-8.44-6.29-17.13-9.18-25.79Q820,543.13,782,429.27c-.9-2.67-2.14-5.23-3.08-7.89-4-11.35-12-16.58-24-16.21-2.38.08-5.63.35-5.61-3.27,0-3.44,3.27-3.58,5.6-3.57,10.48,0,21,.11,31.44.59,18.5.85,36.94-1,55.42-.72a18.21,18.21,0,0,1,6.39.81,3,3,0,0,1,2.3,2.88,2.84,2.84,0,0,1-2.73,3,63.27,63.27,0,0,1-6.47.32c-8.85.37-12.24,4.29-10.44,12.84,4.33,20.48,10.27,40.54,16.29,60.56,12.49,41.48,25.19,82.9,37.82,124.35.51,1.68,1.12,3.33,2.14,6.36,3.25-8.57,6.07-15.89,8.8-23.24Q928,499.51,960.17,412.93a60,60,0,0,1,4.31-9.52c3.11-5.28,7.47-5.35,10.1.13,4.15,8.67,7.73,17.63,11.41,26.53q35.28,85.38,70.51,170.79c.63,1.52,1.36,3,2.18,4.83,1.87-1.53,1.8-3.63,2.31-5.36q23.88-79.94,47.65-159.9c2.19-7.33,4.14-14.72,4.34-22.44.19-7-2.47-10.55-9.37-11.86-3.57-.67-7.29-.6-10.89-1.16s-5.29-2.21-2.67-5.76c6.51-1.66,13.2-.34,19.76-1.13l2,.11a232.28,232.28,0,0,0,46.12,0l5-.09a9.45,9.45,0,0,0,4.84,0l2.84.13Z" transform="translate(-710 -290)"/><path class="cls-3" d="M1158,398.17a232.28,232.28,0,0,1-46.12,0Z" transform="translate(-710 -290)"/><path class="cls-3" d="M1109.81,398.08c-6.56.79-13.25-.53-19.76,1.13C1096.49,396.3,1103.21,398.2,1109.81,398.08Z" transform="translate(-710 -290)"/><path class="cls-3" d="M1167.84,398.09a9.45,9.45,0,0,1-4.84,0A9.14,9.14,0,0,1,1167.84,398.09Z" transform="translate(-710 -290)"/><path class="cls-3" d="M1173.75,399.32l-3.07-1.1C1172,397.84,1173.07,398,1173.75,399.32Z" transform="translate(-710 -290)"/></svg>