<svg id="Layer_1" data-name="Layer 1" xmlns="http://www.w3.org/2000/svg" viewBox="0 0 226.05 217.97"><defs><style>.cls-1{fill:#020202;}.cls-2{fill:#fdfdfd;}.cls-3{fill:#ceb87c;}</style></defs><path class="cls-1" d="M82.58,1.65h49.64a4.55,4.55,0,0,1,3.56,1.44q13,13.19,26.17,26.26a3.69,3.69,0,0,1,1.2,2.93c-.05,7.91,0,15.83-.08,23.74,0,1.86.52,2.18,2.25,2.18,19.91-.07,39.81,0,59.72-.11,2.18,0,2.56.61,2.55,2.63q-.15,21.82,0,43.65c0,2-.59,2.35-2.38,2.28-3.6-.13-7.2.09-10.79-.08-2.12-.1-2.78.41-2.77,2.68.09,26.22,0,52.44.11,78.66a6.29,6.29,0,0,1-2.11,5q-12.87,12.5-25.55,25.21a4.61,4.61,0,0,1-3.56,1.49q-41.61-.08-83.22,0a4.62,4.62,0,0,1-3.54-1.53q-13-12.95-26-25.77a4.64,4.64,0,0,1-1.6-3.7c.08-7.67,0-15.35.08-23,0-1.93-.36-2.56-2.43-2.53-10.39.11-20.78,0-31.18.07a4,4,0,0,1-3.2-1.17Q16.21,148.6,2.83,135.36a4,4,0,0,1-1.28-3.14V32.46a4,4,0,0,1,1.34-3.11Q16.06,16.29,29.12,3.11a4.55,4.55,0,0,1,3.59-1.38Zm88.42,121V177.1c0,1.39-.09,2.1-1.86,2.1q-30.34-.12-60.69,0c-1.46,0-1.89-.39-1.87-1.87q.12-10.2,0-20.39c0-1.58.41-2,2-2,6.88.09,13.76,0,20.63.06a3.7,3.7,0,0,0,2.94-1.18q10.89-11,21.79-21.84a3.73,3.73,0,0,0,1.21-2.93c-.05-9.52-.08-19,0-28.55,0-1.8-.63-2-2.21-2-9.35.07-18.71.1-28.06,0-1.93,0-2.2.63-2.17,2.31.09,6.64,0,13.28.06,19.91,0,1.45-.35,2-1.85,1.91-3.92-.1-7.84-.17-11.75,0-2.15.11-2.62-.53-2.61-2.63.09-17.19,0-34.38.08-51.57,0-1.48-.08-2.23-2-2.22q-22.42.14-44.86,0c-1.27,0-1.79.2-1.78,1.65q.11,14.51,0,29c0,1.48.54,1.66,1.8,1.64,4.08-.07,8.16.08,12.23-.07,1.88-.07,2.24.56,2.22,2.3q-.15,9.83,0,19.67c0,1.62-.35,2.19-2.09,2.17q-14-.13-28.06,0c-1.87,0-2.22-.56-2.22-2.3Q42,82.13,41.88,44c0-1.69.27-2.31,2.18-2.31q38.25.12,76.52,0c1.9,0,2.2.61,2.17,2.3-.09,6.8,0,13.6-.07,20.39,0,1.47.36,1.88,1.85,1.87q14.4-.1,28.78,0c1.6,0,1.8-.56,1.79-1.93q-.07-14.39,0-28.78a3.8,3.8,0,0,0-1.21-2.94Q143.1,21.87,132.43,11.05a4.55,4.55,0,0,0-3.55-1.47q-46.42.08-92.83,0a5,5,0,0,0-3.95,1.67Q21.64,21.92,11,32.43a4.28,4.28,0,0,0-1.39,3.33v93.07A4.2,4.2,0,0,0,11,132.16q10.74,10.6,21.34,21.34a4.79,4.79,0,0,0,3.79,1.5c12-.05,24,0,36-.07,1.84,0,2.24.5,2.22,2.26-.09,9.36,0,18.71-.07,28.07a4.49,4.49,0,0,0,1.41,3.57q10.92,10.71,21.75,21.55a4,4,0,0,0,3.13,1.26q38.39-.06,76.76,0a4.29,4.29,0,0,0,3.32-1.37c7-7,14-14,21.1-20.85a6.28,6.28,0,0,0,2.13-5c-.07-27.83,0-55.65-.07-83.48,0-1.6,0-2.67,2.19-2.55,3.83.22,7.68,0,11.51.11,1.78.06,2.29-.38,2.27-2.22q-.17-13.92,0-27.83c0-2-.64-2.3-2.41-2.29q-22,.09-43.9,0c-2,0-2.49.49-2.48,2.49q0,27,0,54Z" transform="translate(-1.54 -1.64)"/><path class="cls-2" d="M171,122.65q0-27,0-54c0-2,.49-2.51,2.48-2.49q21.94.14,43.9,0c1.77,0,2.44.3,2.41,2.29q-.18,13.9,0,27.83c0,1.84-.49,2.28-2.27,2.22-3.83-.14-7.68.11-11.51-.11-2.22-.12-2.19,1-2.19,2.55q0,41.75.07,83.48a6.28,6.28,0,0,1-2.13,5c-7.11,6.87-14.12,13.84-21.1,20.85a4.29,4.29,0,0,1-3.32,1.37q-38.39-.06-76.76,0a4,4,0,0,1-3.13-1.26q-10.87-10.83-21.79-21.54a4.49,4.49,0,0,1-1.41-3.57c.06-9.36,0-18.71.07-28.07,0-1.76-.38-2.28-2.22-2.26-12,.09-24,0-36,.07a4.79,4.79,0,0,1-3.79-1.5Q21.71,142.77,11,132.17a4.23,4.23,0,0,1-1.37-3.33V35.77A4.28,4.28,0,0,1,11,32.44Q21.62,21.93,32.13,11.29a5,5,0,0,1,3.95-1.67q46.41.08,92.83,0a4.55,4.55,0,0,1,3.55,1.47q10.66,10.83,21.46,21.54a3.8,3.8,0,0,1,1.21,2.94q-.07,14.38,0,28.78c0,1.37-.19,2-1.79,1.93q-14.39-.12-28.78,0c-1.49,0-1.87-.4-1.85-1.87.08-6.79,0-13.59.07-20.39,0-1.69-.27-2.3-2.17-2.3q-38.26.12-76.52,0c-1.91,0-2.18.62-2.18,2.31q.09,38.13,0,76.28c0,1.74.35,2.32,2.22,2.3q14-.17,28.06,0c1.74,0,2.11-.55,2.09-2.17q-.12-9.84,0-19.67c0-1.74-.34-2.37-2.22-2.3-4.07.15-8.15,0-12.23.07-1.26,0-1.81-.16-1.8-1.64q.11-14.5,0-29c0-1.45.51-1.65,1.78-1.65,15,0,29.91.06,44.86,0,1.88,0,2,.74,2,2.22q0,25.78-.08,51.57c0,2.1.46,2.74,2.61,2.63,3.91-.19,7.83-.12,11.75,0,1.5,0,1.87-.46,1.85-1.91-.07-6.63,0-13.27-.06-19.91,0-1.68.24-2.34,2.17-2.31,9.35.11,18.71.08,28.06,0,1.58,0,2.22.24,2.21,2-.1,9.52-.07,19,0,28.55A3.73,3.73,0,0,1,154,132Q143,142.83,132.15,153.84a3.7,3.7,0,0,1-2.94,1.18c-6.87,0-13.75,0-20.63-.06-1.57,0-2,.41-2,2q.12,10.18,0,20.39c0,1.48.41,1.87,1.87,1.87q30.35-.06,60.69,0c1.77,0,1.87-.71,1.86-2.1Q171,149.84,171,122.65Zm4.1,4.15v54c0,1.48,0,2.52-2,2.52q-34.18-.12-68.36,0c-1.54,0-2.08-.42-2.07-2q.11-14.16,0-28.31c0-1.72.58-2.15,2.21-2.14,7.52.07,15,0,22.55.06a4.35,4.35,0,0,0,3.38-1.37q9.44-9.57,19-19a4.31,4.31,0,0,0,1.46-3.34q-.1-11.14,0-22.31c0-1.66-.44-2.19-2.14-2.17q-10.08.14-20.15,0c-1.84,0-2.28.56-2.25,2.32.1,6.39,0,12.79.08,19.18,0,2-.43,2.62-2.49,2.58-6.07-.14-12.15,0-18.23-.06-3.78,0-3.35.41-3.36-3.29V72.85c0-1.4.2-2.66-2-2.65q-18.36.1-36.7,0c-1.61,0-2,.61-2,2.12q.09,10.2,0,20.39c0,1.63.57,2,2.09,2,4-.09,8,.07,12-.07,1.87-.07,2.26.58,2.24,2.32q-.12,13.79,0,27.58c0,1.82-.52,2.29-2.3,2.28q-17.74-.12-35.5,0c-2,0-2.54-.52-2.53-2.52q.09-42,0-84c0-1.92.44-2.65,2.51-2.65q42,.1,84,0c2,0,2.36.7,2.33,2.49-.09,6.63,0,13.27-.06,19.9,0,1.53.37,2.1,2,2.08q10.19-.12,20.38,0c1.7,0,2.17-.51,2.15-2.17q-.12-11.16,0-22.31a4.45,4.45,0,0,0-1.5-3.54q-9.56-9.44-19-19a4.46,4.46,0,0,0-3.52-1.52q-44.74.06-89.48,0A4.6,4.6,0,0,0,34.3,15Q24.78,24.69,15.13,34.2a4.57,4.57,0,0,0-1.51,3.57q.06,44.61,0,89.23a4.6,4.6,0,0,0,1.49,3.57q9.48,9.35,18.84,18.81a4.84,4.84,0,0,0,3.79,1.55c12.72-.06,25.43,0,38.14-.08,2,0,2.54.58,2.52,2.55-.1,10.08,0,20.15-.06,30.23a4,4,0,0,0,1.15,3.21c6.68,6.56,13.29,13.17,19.9,19.79a3.54,3.54,0,0,0,2.65,1.11h73.88a3.34,3.34,0,0,0,2.57-1c6.48-6.41,13-12.83,19.5-19.17a5.89,5.89,0,0,0,1.79-4.68c-.06-19.59,0-39.18,0-58.77V97c0-1.74.24-2.61,2.31-2.51,3.75.18,7.52,0,11.27.09,1.73.05,2.38-.36,2.35-2.24q-.17-9.94,0-19.91c0-2-.65-2.37-2.47-2.36-11.75.07-23.51.09-35.26,0-2.13,0-2.84.46-2.83,2.74q0,27-.05,54Z" transform="translate(-1.54 -1.64)"/><path class="cls-3" d="M175.1,126.84q0-27-.06-54c0-2.28.7-2.76,2.83-2.74,11.75.1,23.51.08,35.26,0,1.82,0,2.51.38,2.47,2.36q-.18,10,0,19.91c0,1.88-.62,2.29-2.35,2.24-3.75-.12-7.52.09-11.27-.09-2.07-.1-2.32.77-2.31,2.51.07,9,0,18.07,0,27.1V182.9a5.89,5.89,0,0,1-1.79,4.68c-6.55,6.34-13,12.76-19.5,19.17a3.34,3.34,0,0,1-2.57,1H101.93a3.57,3.57,0,0,1-2.73-1.18C92.59,200,86,193.34,79.3,186.78a4,4,0,0,1-1.15-3.21c0-10.08,0-20.15.06-30.23,0-2-.49-2.57-2.52-2.55-12.71.09-25.42,0-38.14.08a4.84,4.84,0,0,1-3.79-1.55Q24.49,139.84,15,130.5a4.6,4.6,0,0,1-1.49-3.57q.06-44.62,0-89.23a4.57,4.57,0,0,1,1.51-3.57Q24.71,24.61,34.23,15a4.6,4.6,0,0,1,3.58-1.46q44.75.06,89.48,0A4.46,4.46,0,0,1,130.81,15q9.38,9.59,18.95,19a4.45,4.45,0,0,1,1.5,3.54q-.12,11.16,0,22.31c0,1.66-.45,2.2-2.15,2.17q-10.19-.12-20.38,0c-1.63,0-2-.55-2-2.08.07-6.63,0-13.27.06-19.9,0-1.79-.33-2.49-2.33-2.49q-42,.11-84,0c-2.07,0-2.51.73-2.51,2.65q.09,42,0,84c0,2,.54,2.54,2.53,2.52q17.76-.14,35.5,0c1.78,0,2.32-.46,2.3-2.28q-.14-13.78,0-27.58c0-1.74-.37-2.39-2.24-2.32-4,.14-8,0-12,.07-1.52,0-2.11-.35-2.09-2q.12-10.2,0-20.39c0-1.51.43-2.13,2-2.12q18.35.08,36.7,0c2.17,0,2,1.25,2,2.65V123.4c0,3.7-.42,3.28,3.36,3.29,6.08,0,12.16-.08,18.23.06,2.06,0,2.53-.63,2.49-2.58-.12-6.39,0-12.79-.08-19.18,0-1.76.41-2.35,2.25-2.32q10.08.17,20.15,0c1.7,0,2.16.51,2.14,2.17q-.12,11.16,0,22.31a4.31,4.31,0,0,1-1.46,3.34q-9.54,9.45-19,19a4.35,4.35,0,0,1-3.38,1.37c-7.52-.05-15,0-22.55-.06-1.63,0-2.22.42-2.21,2.14q.12,14.16,0,28.31c0,1.61.53,2,2.07,2q34.19-.06,68.36,0c2.1,0,2-1,2-2.52Q175,153.79,175.1,126.84Z" transform="translate(-1.54 -1.64)"/></svg>