<svg id="Layer_1" data-name="Layer 1" xmlns="http://www.w3.org/2000/svg" viewBox="0 0 99 99"><defs><style>.cls-1{fill:#405caa;}</style></defs><path class="cls-1" d="M65.57,51h5.22V38.59H73V35.33H70.75V33.89c0-1.64.72-2.4,2.44-2.4a5.55,5.55,0,0,1,1.68.24l.21-4a11.6,11.6,0,0,0-2.75-.34,6.88,6.88,0,0,0-4.66,1.68,6.47,6.47,0,0,0-2.1,5.05v1.23H63.34v3.26h2.23V51Zm13.48-7.9V51H73.84l0-15.62H79v3.85c.61-2.61,2.39-4.22,4-4.22a8.17,8.17,0,0,1,3.72,1l-1.15,4.91a10.13,10.13,0,0,0-2.91-1A3.93,3.93,0,0,0,79.05,43.05ZM57.51,51h0V35.33h5.21V51Zm2.57-17.82a2.72,2.72,0,0,1-2.88-2.77,2.94,2.94,0,1,1,2.92,2.77ZM51,30.19v5.14h5.47v3.26H51V44.7c0,1.75.57,2.61,2.11,2.61a27.58,27.58,0,0,0,3.22-.37l0,3.94c-.65.24-10.7,2.64-10.48-5.39v-6.9H43.63V38ZM32.84,19a4.64,4.64,0,1,0,4.64,4.63A4.63,4.63,0,0,0,32.84,19M23,24.14c-4.38,11.7-1.09,23.17,14.55,26.77H27.46c-10-9.77-9.31-18.33-4.47-26.77m5-6.95c-6.9,4.55-17.17,19.29-6.1,33.72H16.9c-1.12-2.59-9.19-20.88,11-33.72M23.43,29.52c-.62,3.36-.33,14.74,14.11,17.13,0-1,0-2,0-3-7.84.18-13.64-5.5-14.11-14.15" transform="translate(-0.5 -0.5)"/><path class="cls-1" d="M27.8,72.66H23.52V66H17.91v6.63H13.64V56.5h4.27v5.9h5.61V56.5H27.8V72.66Z" transform="translate(-0.5 -0.5)"/><path class="cls-1" d="M42.88,65.12a3.76,3.76,0,0,0-1.57-1.28,3.57,3.57,0,0,0,1.61-3.13,4.44,4.44,0,0,0-.41-2,3.42,3.42,0,0,0-1.17-1.33,4.9,4.9,0,0,0-1.73-.69,11,11,0,0,0-2.14-.2H29.62V72.66h8.07a8.72,8.72,0,0,0,2.17-.27,6.08,6.08,0,0,0,1.92-.85A4.32,4.32,0,0,0,43.16,70a5,5,0,0,0-.28-4.89Zm-9-5.2h2.86a4.57,4.57,0,0,1,.83.07,2,2,0,0,1,.63.22,1.07,1.07,0,0,1,.39.4,1.41,1.41,0,0,1,.14.68,1.22,1.22,0,0,1-.43,1.07,2.15,2.15,0,0,1-1.3.36H33.9v-2.8Zm5.33,8.5a1.19,1.19,0,0,1-.43.46,1.8,1.8,0,0,1-.68.27,4.43,4.43,0,0,1-.9.09H33.9V65.82h3.39a2.6,2.6,0,0,1,1.58.43,1.58,1.58,0,0,1,.53,1.37A1.67,1.67,0,0,1,39.23,68.42Z" transform="translate(-0.5 -0.5)"/><path class="cls-1" d="M52.27,73a8.69,8.69,0,0,1-3.42-.65,7.48,7.48,0,0,1-2.59-1.78,8,8,0,0,1-1.61-2.67,9.38,9.38,0,0,1-.55-3.26,9.84,9.84,0,0,1,.55-3.34,8.08,8.08,0,0,1,1.61-2.7,7.44,7.44,0,0,1,2.59-1.82,9,9,0,0,1,6-.27,6.9,6.9,0,0,1,2.21,1.13,6.15,6.15,0,0,1,1.62,1.85A6.39,6.39,0,0,1,59.5,62l0,.44H55.39l0-.34a2.45,2.45,0,0,0-.34-.91h0A3.18,3.18,0,0,0,53.37,60a3.38,3.38,0,0,0-1.1-.18,3.77,3.77,0,0,0-1.8.39,3.39,3.39,0,0,0-1.19,1.06,4.91,4.91,0,0,0-.69,1.56,8.25,8.25,0,0,0-.22,1.87,7.54,7.54,0,0,0,.22,1.78A4.47,4.47,0,0,0,49.28,68a3.36,3.36,0,0,0,1.19,1,3.77,3.77,0,0,0,1.8.39,2.9,2.9,0,0,0,2.21-.82,3.93,3.93,0,0,0,1-2.28l.05-.34h4.15l0,.43a8.13,8.13,0,0,1-.72,2.74,6.51,6.51,0,0,1-3.82,3.43A8.47,8.47,0,0,1,52.27,73Z" transform="translate(-0.5 -0.5)"/><path class="cls-1" d="M66.9,73a10.47,10.47,0,0,1-2.63-.33,7,7,0,0,1-2.31-1,5.26,5.26,0,0,1-1.61-1.83,5.34,5.34,0,0,1-.58-2.65v-.39h4.16v.39a2.39,2.39,0,0,0,.24,1.13h0a2.18,2.18,0,0,0,.65.73,2.84,2.84,0,0,0,1,.44,5.8,5.8,0,0,0,2.18.08,3.8,3.8,0,0,0,.89-.26,1.79,1.79,0,0,0,.63-.49,1,1,0,0,0,.22-.7.93.93,0,0,0-.28-.72,3.19,3.19,0,0,0-1-.57A10.51,10.51,0,0,0,67,66.37c-.56-.13-1.14-.28-1.73-.44a16.12,16.12,0,0,1-1.76-.53,6.39,6.39,0,0,1-1.61-.87,4.3,4.3,0,0,1-1.18-1.36,4,4,0,0,1-.46-2,4.27,4.27,0,0,1,.58-2.26,5,5,0,0,1,1.48-1.58,6.15,6.15,0,0,1,2-.91,9.83,9.83,0,0,1,4.7,0,6.58,6.58,0,0,1,2.16.93A4.83,4.83,0,0,1,72.78,59a5,5,0,0,1,.57,2.46v.4H69.21l0-.37a2.29,2.29,0,0,0-.25-1A1.48,1.48,0,0,0,68.4,60a2.66,2.66,0,0,0-.83-.32,5.08,5.08,0,0,0-1.87,0,1.85,1.85,0,0,0-.63.25,1.43,1.43,0,0,0-.45.43,1,1,0,0,0-.16.59,1,1,0,0,0,.12.52,1.21,1.21,0,0,0,.53.37,9.12,9.12,0,0,0,1.37.45l2.4.6c.29,0,.72.16,1.25.31a6.41,6.41,0,0,1,1.67.77,5,5,0,0,1,1.45,1.44,4.06,4.06,0,0,1,.64,2.34,5.09,5.09,0,0,1-.46,2.13,4.67,4.67,0,0,1-1.37,1.7,6.33,6.33,0,0,1-2.19,1.09A10.28,10.28,0,0,1,66.9,73Z" transform="translate(-0.5 -0.5)"/><path class="cls-1" d="M87.52,72.66H74.71V56.5H87.34v3.64H79v2.49h7.67v3.43H79v3h8.54v3.63Z" transform="translate(-0.5 -0.5)"/><path class="cls-1" d="M50,99.5A49.5,49.5,0,1,1,99.5,50,49.56,49.56,0,0,1,50,99.5ZM50,3.68A46.32,46.32,0,1,0,96.32,50,46.37,46.37,0,0,0,50,3.68Z" transform="translate(-0.5 -0.5)"/></svg>