<?xml version="1.0" encoding="utf-8"?>
<!-- Generator: Adobe Illustrator 26.5.0, SVG Export Plug-In . SVG Version: 6.00 Build 0)  -->
<svg version="1.1" id="Layer_1" xmlns="http://www.w3.org/2000/svg" xmlns:xlink="http://www.w3.org/1999/xlink" x="0px" y="0px"
	 viewBox="0 0 512 512" style="enable-background:new 0 0 512 512;" xml:space="preserve">
<style type="text/css">
	.st0{fill:#8D8D8D;}
	.st1{fill:#007FFF;}
</style>
<g id="XMLID_1_">
	<path id="XMLID_3_" class="st0" d="M234.93,106.87c4.35-2.39,8.7-4.91,13.05-7.02c9.68,5.75,19.5,11.5,28.06,18.8
		c6.31,5.47,11.93,11.93,15.15,19.78c2.1,5.19,3.51,10.8,3.37,16.42c-0.98,7.86-3.37,15.71-8,22.17c-2.67-4.21-5.19-8.7-8.42-12.49
		c-10.38-12.77-24.83-21.47-39.42-28.76c-10.8-5.47-22.17-9.96-33.25-14.87C215.43,116.41,225.39,112.07,234.93,106.87
		L234.93,106.87z"/>
	<path id="XMLID_4_" class="st0" d="M116.66,153.88c1.12,4.21,1.82,8.56,3.37,12.63c1.26,3.23,2.67,6.17,4.35,9.26
		c6.87,11.5,16.56,21.05,27.22,29.04c7.02,5.33,14.45,10.1,22.17,14.31c9.96,5.19,20.48,8.98,30.73,13.47
		c-19.36,8.14-38.86,16.13-56.68,27.5c-9.4-5.19-18.94-10.1-28.9-14.03c-9.54-3.65-19.36-7.02-29.6-8c-8.7-0.84-17.4-1.26-26.1-0.7
		c-8.56,0.28-17.12,0.98-25.39,3.09c-0.14,57.24,0,114.63-0.14,171.87c0,1.82,0,3.79,0.14,5.61c47.42,0,94.98,0.14,142.41,0
		c-16.56-7.16-32.97-15.43-46.72-27.22c-6.45-5.61-12.35-12.07-16.27-19.64c-2.53-4.77-4.21-10.1-4.49-15.71
		c1.12-8.14,2.95-16.56,7.44-23.57c1.82,3.23,3.51,6.59,5.75,9.54c5.61,7.58,12.91,13.61,20.48,19.08
		c14.03,9.96,29.46,17.96,45.04,25.25c9.96,4.63,20.2,9.12,30.3,13.47c0.98,0.42,1.96,0.98,2.95,1.4
		c-3.65,1.68-7.44,2.95-11.22,4.49c-11.08,4.35-22.03,9.12-33.11,13.33c-10.24,4.07-20.48,8-30.73,12.07
		c-2.24,0.84-4.49,2.1-7.02,2.1c-39.71,0-79.41,0-119.12,0c-0.14-67.62,0-135.11,0-202.73c10.8-5.05,22.73-6.73,34.37-7.58
		c14.87-0.7,30.02,0.28,44.62,3.23c9.96,1.82,19.5,5.19,28.62,9.4c3.23,1.4,6.17,3.23,9.54,4.35c-2.24-2.1-4.91-3.65-7.16-5.75
		c-7.16-6.03-13.05-14.17-15.29-23.29c-2.39-8.28-1.26-16.98-1.4-25.39c0-4.91-0.42-9.82-0.14-14.87
		C116.52,164.54,116.1,159.21,116.66,153.88L116.66,153.88z"/>
	<path id="XMLID_5_" class="st1" d="M286.71,177.17c4.63-6.59,7.02-14.31,8-22.17c0.42,1.96,0.56,3.93,0.56,6.03
		c0,11.93,0.14,23.99-0.14,35.92c0.14,6.59-0.84,13.19-3.37,19.22c-3.09,7.58-8.56,13.89-14.87,18.94
		c-8.42,7.02-18.24,11.93-27.78,17.12c-8,4.07-15.71,8.7-23.99,12.63c-6.03,3.09-12.35,5.61-18.52,8.56
		c-19.22,8.42-38.72,16.7-56.4,28.2c-11.93,7.86-23.29,17.4-30.3,30.02c-4.35,7.16-6.17,15.43-7.44,23.57
		c-0.56-4.63,0-9.26-0.42-13.89c-0.28-6.17,0.56-12.35,0.14-18.52c-0.28-8.28-0.56-16.84,2.1-24.83c2.53-8,7.3-15.29,13.05-21.47
		c6.03-6.45,13.05-11.93,20.34-16.7c17.82-11.36,37.32-19.36,56.68-27.5c14.31-5.89,28.9-11.08,42.09-19.22
		c7.58-4.49,15.01-9.54,21.75-15.29C275.34,192.04,281.94,185.16,286.71,177.17z"/>
	<path id="XMLID_6_" class="st0" d="M340.16,188.39c8.84-3.23,18.52-2.95,27.5-0.56c13.61,3.79,25.82,11.93,35.92,21.61
		c-8.28,1.82-16.27,5.47-22.45,11.36c-7.86,7.16-12.91,16.7-16.42,26.38c-7.02,19.78-9.12,40.83-11.93,61.59
		c-1.82,12.91-3.51,25.96-7.44,38.58c-2.24,7.72-6.17,14.73-10.24,21.47c-8,13.33-18.8,25.11-31.71,33.81
		c-7.72,5.19-16.27,9.26-25.11,12.49c-2.81,1.12-5.75,1.82-8.56,3.09c5.33,0,10.66-0.14,15.99-0.28c3.51-0.14,7.02,0.28,10.38-0.84
		c15.43-4.63,29.04-14.45,39.85-26.38c11.79-13.05,20.76-28.48,27.08-44.9c7.86-20.48,10.1-42.51,16.42-63.42
		c2.67-8.56,5.75-17.12,11.08-24.27c4.21-5.75,9.96-10.66,16.98-12.77c9.54-2.81,20.06-1.68,29.04,2.53
		c8,3.65,15.01,9.4,20.62,16.27c-15.85,4.91-28.76,17.12-36.06,31.99c-3.79,7.02-5.75,14.87-8.28,22.31
		c-5.75,17.82-11.22,35.92-19.78,52.61c-6.17,12.35-14.17,23.85-24.69,32.97c-6.45,5.75-13.89,10.52-21.89,14.17
		c5.33,0,10.66-0.28,15.99-0.28c2.81,0,5.33-1.68,7.72-2.81c12.63-6.87,22.31-17.82,29.88-29.88c6.87-11.22,12.49-23.15,16.98-35.5
		c2.67-7.16,5.05-14.45,8.14-21.33c3.23-7.16,7.02-14.45,12.77-20.06c4.77-4.91,11.22-8.28,18.1-8.7c7.86-0.56,16.42,0.7,22.73,5.75
		c4.21,3.37,7.44,7.72,10.1,12.35c-7.86,2.24-15.15,6.45-20.9,12.21c-8.84,8.84-14.73,19.92-20.2,31.15
		c-6.73,13.61-12.49,27.78-20.76,40.55c-6.73,10.52-15.71,19.92-27.08,25.25c-8.56,3.93-17.96,5.47-27.36,5.47
		c-8.84,0.42-17.68,0-26.38,0.42c-42.65,0-85.3,0-127.95,0c-12.35-0.42-24.69-0.14-37.04-0.14c-4.35-0.14-8.7,0.28-13.05-0.14
		c1.82-1.12,3.79-1.82,5.75-2.53c21.75-8.14,43.91-15.15,64.96-24.97c16.98-7.86,33.39-17.68,46.44-31.15
		c4.77-5.05,9.4-10.52,13.05-16.56c5.61-9.54,8.14-20.48,9.26-31.29c3.09-29.04-1.82-58.08,0.84-87.13
		c0.98-9.82,3.09-19.5,7.44-28.34C321.08,200.45,329.78,192.32,340.16,188.39L340.16,188.39z"/>
	<path id="XMLID_7_" class="st0" d="M225.11,264.85c8.14-3.79,15.85-8.56,23.99-12.63c14.17,8,27.78,18.1,36.62,31.99
		c6.59,10.38,10.1,22.59,10.38,34.79c0.42,7.58-0.7,15.15-3.09,22.31c-2.24-5.05-4.49-10.24-7.72-14.73
		c-10.24-14.87-25.68-25.25-41.11-33.95c-9.96-5.61-20.06-10.66-30.3-15.71c-2.39-1.26-4.77-2.24-7.02-3.51
		C212.63,270.32,218.94,267.8,225.11,264.85L225.11,264.85z"/>
	<path id="XMLID_8_" d="M201.12,293.61c5.19-0.56,10.38-0.56,15.43,0.7c9.96,2.53,18.94,8.84,24.27,17.54
		c5.33,8.28,7.44,18.66,5.75,28.34c-2.53,16.27-16.13,30.16-32.41,32.97c-8.98,1.68-18.66,0.28-26.8-4.35
		c-7.72-4.21-14.03-10.94-17.54-19.08c-4.21-9.26-4.63-20.2-1.12-29.88C173.76,306.1,186.67,295.58,201.12,293.61L201.12,293.61z"/>
	<path id="XMLID_9_" d="M78.5,453.98c3.37-3.23,8.14-4.35,12.63-4.21c4.63-0.14,9.4,1.12,13.33,3.37c0,3.37-0.42,6.87-0.42,10.24
		c0,1.26-0.14,2.53-0.42,3.79c-3.23-2.67-7.02-5.61-11.5-5.19c-3.65-0.28-5.75,4.49-3.93,7.44c1.54,2.24,4.21,3.23,6.59,4.49
		c3.93,1.96,8,4.49,10.1,8.56c3.23,6.31,2.67,14.03-0.42,20.2c-2.24,4.49-6.45,7.58-11.36,8.56c-6.31,1.26-13.05,0.84-18.8-1.82
		c-0.98-0.28-1.12-1.26-1.12-2.1c0.14-4.35,0.28-8.7,0.42-13.05c2.53,1.82,5.05,4.07,8.28,4.63c2.95,0.56,6.31,0.98,8.7-0.98
		c2.39-1.96,2.39-6.17-0.14-8c-3.65-2.67-8.14-3.93-11.5-7.02c-3.51-2.81-5.47-7.16-5.75-11.64
		C72.61,465.2,73.87,458.33,78.5,453.98L78.5,453.98z"/>
	<path id="XMLID_12_" d="M276.46,449.91c-1.54,0-2.95,0.14-4.35,0.42c-5.33,1.12-10.1,4.77-12.77,9.4
		c-4.77,7.86-5.47,17.4-4.91,26.38c0.7,7.02,2.39,14.45,7.44,19.64c7.16,8,20.9,8.28,28.48,0.84c4.07-3.93,6.31-9.26,7.3-14.73
		c1.4-7.02,1.26-14.17,0.14-21.19c-1.26-6.31-3.93-12.63-8.98-16.7C285.3,451.17,280.95,449.77,276.46,449.91L276.46,449.91z
		 M276.32,456.92c3.09-0.14,6.17,1.12,8.42,3.23c3.09,2.95,4.35,7.3,5.05,11.5c1.12,7.58,1.12,15.43-1.12,22.73
		c-1.12,2.95-2.53,6.03-5.05,8.14c-4.07,3.23-10.38,3.09-14.31-0.28c-3.37-2.95-5.05-7.44-5.75-11.79
		c-1.4-7.58-1.12-15.57,0.98-23.01c1.26-4.77,4.77-9.26,9.82-10.1C274.92,457.06,275.62,456.92,276.32,456.92L276.32,456.92z"/>
	<path id="XMLID_13_" d="M23.22,451.31c5.19-0.28,10.38-0.14,15.43-0.42c-0.28,12.77-0.28,25.53-0.14,38.3
		c0.42,4.77-0.14,9.54,0.28,14.31c0.14,2.39,0,4.77,0,7.02c-5.19,0-10.24,0-15.29,0.28c-0.42-5.05-0.14-10.1-0.14-15.29
		c0.56-8.98,0.14-17.96,0.28-26.94C23.78,462.96,23.36,457.06,23.22,451.31z"/>
	<path id="XMLID_16_" d="M402.31,450.89c-2.95,0-5.89,0.28-8.84,0.28c-0.98,2.67-1.54,5.61-2.24,8.42
		c-4.49,17.12-9.4,34.09-14.03,51.21c2.67,0,5.19-0.14,7.86-0.28c1.4-5.89,2.67-11.93,4.21-17.82c5.61-0.28,11.22-0.14,16.98,0
		c1.4,6.17,2.81,12.35,4.21,18.38c2.95-0.14,5.75,0.14,8.7-0.56c-4.77-19.08-9.96-38.02-14.45-57.24c-0.28-0.7-0.28-1.68-0.84-2.1
		C403.16,450.89,402.73,450.89,402.31,450.89L402.31,450.89z M397.96,457.63c2.24,9.4,4.35,18.8,6.59,28.2c-4.49,0-8.98,0-13.47,0
		C393.19,476.43,395.58,467.03,397.96,457.63z"/>
	<path id="XMLID_17_" d="M417.05,451.17c7.16-0.14,14.31,0.14,21.61-0.28c4.07,0,8,0,12.07,0c-0.14,2.53,0,5.05-0.28,7.44
		c-4.35,0.14-8.56-0.28-12.91-0.14c0,17.4-0.14,34.93,0.42,52.33c-2.81,0-5.75,0.14-8.56,0.28c-0.14-6.31,0.28-12.63,0.28-18.94
		c0-8.7,0-17.26,0-25.96c0-2.67,0.14-5.19-0.28-7.86c-4.35,0.28-8.7,0.28-12.91,0.28C416.34,456.08,415.92,453.28,417.05,451.17
		L417.05,451.17z"/>
	<path id="XMLID_20_" d="M471.34,450.89c-3.23,0-6.45,0.28-9.68,0.28c-0.7,0-0.84,0.84-1.12,1.26c-3.79,15.15-8,30.02-12.21,45.04
		c-1.12,4.35-2.67,8.7-3.51,13.19c1.96,0,3.93-0.14,5.89-0.14c0.56-0.14,1.82,0.14,1.96-0.7c1.4-5.75,2.53-11.64,4.07-17.26
		c5.61-0.14,11.22,0,16.84,0c1.54,6.17,2.81,12.35,4.21,18.52c2.81-0.14,5.75-0.14,8.56-0.42c-1.82-8.42-4.21-16.7-6.31-24.97
		C476.95,473.9,474.43,462.4,471.34,450.89L471.34,450.89z M465.45,458.05c1.4,4.35,2.1,8.98,3.23,13.47
		c1.12,4.77,2.24,9.54,3.23,14.31c-4.49,0-8.98,0-13.47,0C460.82,476.57,462.92,467.17,465.45,458.05L465.45,458.05z"/>
	<path id="XMLID_21_" d="M48.9,451.17c5.19,0,10.24,0,15.43-0.28c-0.14,4.21,0.14,8.28-0.28,12.49c0,8.42,0,16.98,0,25.39
		c0.42,4.77,0.14,9.4,0.28,14.17c0.28,2.53,0.14,5.05,0.14,7.72c-5.19,0-10.38,0.14-15.43,0.28c0-7.58-0.14-15.01,0.14-22.59
		C49.18,476.01,49.32,463.52,48.9,451.17z"/>
	<path id="XMLID_22_" d="M114.14,451.17c10.38,0,20.9,0,31.29,0c0,4.07,0,8.28-0.42,12.35c-5.33,0.14-10.66,0-15.99,0
		c-0.14,3.51,0,7.02,0,10.52c5.05,0.28,10.1-0.42,15.29-0.28c0.14,4.07-0.28,8-0.56,12.07c-4.77,0.7-9.68,0.14-14.45,0.28
		c0,3.79,0,7.72,0,11.5c5.75-0.28,11.64,0,17.26-0.7c0.56,2.67-0.14,5.47-0.14,8.14c-0.14,1.82,0.14,3.79-0.56,5.47
		c-2.1,0.28-4.35-0.28-6.59,0c-8.28-0.14-16.56,0.28-24.83,0.14c-0.42-5.19,0.14-10.52,0.14-15.71c-0.14-13.05,0.28-26.1-0.42-39.14
		C114.14,454.4,114.14,452.86,114.14,451.17L114.14,451.17z"/>
	<path id="XMLID_25_" d="M172.08,450.89c-6.17,0.42-12.21,0-18.38,0.28c0.28,8.84,0.84,17.68,0.7,26.52
		c0.14,7.72-0.28,15.57-0.14,23.29c0.14,3.37-0.42,6.59-0.14,9.82c4.91,0.28,9.82-0.14,14.73-0.14c0-7.3-0.56-14.59-0.28-22.03
		c0.7,0,1.4,0,2.1-0.14c2.53,6.45,5.05,12.77,7.16,19.36c0.42,0.98,0.56,2.1,1.4,2.81c1.26,0.28,2.67,0,4.07,0
		c3.65-0.28,7.44-0.14,11.08-0.84c-0.56-1.54-1.12-2.95-1.96-4.49c-3.37-6.87-6.17-13.89-8.98-20.9c5.19-2.53,7.72-8.42,8.14-13.89
		c0.56-5.75-0.56-12.07-4.77-16.27C182.74,451.03,177.13,451.03,172.08,450.89L172.08,450.89z M170.68,463.24
		c2.1,0,4.35,0,5.61,1.82c1.68,2.95,1.68,7.16-0.56,9.96c-1.82,1.96-4.77,2.1-7.16,2.24c0.14-4.63,0.14-9.26,0.14-14.03
		C169.27,463.24,169.98,463.24,170.68,463.24L170.68,463.24z"/>
	<path id="XMLID_26_" d="M219.36,451.17c2.81,0,5.47-0.42,8.28-0.28c0.14,8.98-0.56,17.96-0.14,27.08
		c5.05-7.16,9.54-14.59,14.31-22.03c1.12-1.54,1.68-3.65,3.23-4.77c2.81,0,5.47-0.42,8.28-0.14c-2.67,4.77-6.03,9.12-9.12,13.75
		c-2.95,4.35-5.75,8.7-8.56,13.05c6.17,10.52,12.77,20.9,19.5,31.01c0.42,0.56,0.42,1.26,0.42,1.82c-3.09,0-6.17,0.14-9.4,0.28
		c-6.03-10.38-12.07-20.62-18.66-30.73c-0.28,10.24,0.42,20.34,0.28,30.59c-2.67,0-5.47,0.14-8.14,0.14
		c0.28-15.99,0-31.99,0.14-47.98C219.92,459.03,219.22,455.1,219.36,451.17L219.36,451.17z"/>
	<path id="XMLID_27_" d="M306.21,451.17c2.95,0,5.89-0.42,8.84-0.28c0,7.02-0.56,14.03-0.42,20.9c-0.28,6.45-0.14,13.05-0.14,19.5
		c0,3.93-0.14,7.86,0.28,11.79c3.79,0,7.44,0,11.22,0c2.53-0.28,5.05-0.28,7.58-0.14c0.14,2.53,0,5.19-0.28,7.72
		c-6.31,0.28-12.63-0.14-18.8,0.28c-2.53,0-5.19,0.14-7.72,0c-0.28-3.23,0.14-6.59,0.14-9.82c-0.14-8.84,0.28-17.68,0.14-26.38
		C306.63,466.75,306.77,459.03,306.21,451.17L306.21,451.17z"/>
	<path id="XMLID_28_" d="M339.6,451.87c0.14-0.14,0.56-0.56,0.7-0.7c2.67,0,5.19-0.42,7.86-0.14c-0.14,9.12-0.42,18.1-0.28,27.22
		c5.89-8.98,11.64-17.96,17.26-27.08c2.81,0.14,5.61-0.42,8.42-0.14c-1.4,3.23-3.79,5.89-5.61,8.84c-4.07,5.89-8,11.79-11.79,17.82
		c5.19,8.98,10.8,17.82,16.42,26.52c1.26,1.96,2.67,3.65,3.65,5.75c-0.14,0.14-0.42,0.56-0.56,0.7c-3.09,0-6.03,0.14-9.12,0.14
		c-6.03-10.38-12.07-20.62-18.52-30.73c-0.28,6.03,0.28,12.07,0.14,18.24c-0.14,4.07,0.56,8.28,0.28,12.35
		c-2.67,0-5.47,0.14-8.14,0.28c-0.28-6.31,0.28-12.63,0.14-18.94C340.02,478.67,340.44,465.2,339.6,451.87L339.6,451.87z"/>
	<path id="XMLID_29_" class="st1" d="M291.06,22.13c4.63-6.59,7.02-14.31,8-22.17c0.42,1.96,0.56,3.93,0.56,6.03
		c0,11.93,0.14,23.99-0.14,35.92c0.14,6.59-0.84,13.19-3.37,19.22c-3.09,7.58-8.56,13.89-14.87,18.94
		c-8.42,7.02-18.24,11.93-27.78,17.12c-8,4.07-15.71,8.7-23.99,12.63c-6.03,3.09-12.35,5.61-18.52,8.56
		c-19.22,8.42-38.72,16.7-56.4,28.2c-11.93,7.86-23.29,17.4-30.3,30.02c-4.35,7.16-6.17,15.43-7.44,23.57
		c-0.56-4.63,0-9.26-0.42-13.89c-0.28-6.17,0.56-12.35,0.14-18.52c-0.28-8.28-0.56-16.84,2.1-24.83c2.53-8,7.3-15.29,13.05-21.47
		c6.03-6.45,13.05-11.93,20.34-16.7c17.82-11.36,37.32-19.36,56.68-27.5c14.31-5.89,28.9-11.08,42.09-19.22
		c7.58-4.49,15.01-9.54,21.75-15.29C279.69,37,286.28,30.27,291.06,22.13L291.06,22.13z"/>
</g>
</svg>
