<svg id="Layer_1" data-name="Layer 1" xmlns="http://www.w3.org/2000/svg" viewBox="0 0 152.52 205.86"><defs><style>.cls-1{fill:#226f0b;}.cls-2{fill:#100b7a;}.cls-3{fill:#bd1052;}.cls-4{fill:#f5440c;}.cls-5{fill:#7d0c75;}.cls-6{fill:#eecb09;}.cls-7{fill:#40b119;}.cls-8{fill:#89be10;}.cls-9{fill:#f25b0e;}.cls-10{fill:#668b34;}.cls-11{fill:#d8d3d3;}.cls-12{fill:#d5a26c;}.cls-13{fill:#f78e0c;}</style></defs><path class="cls-1" d="M1008.69,601.85a21.65,21.65,0,0,1-3.4,2.63c-2.07,1-4.35.8-6.56.38-1.44-.27-2.82-.91-4.26-1.08a10.51,10.51,0,0,0-3.06.66c3.56,2.48,7.26,1.72,11.13,1.87l-2.73,1.52c-2.09,1.16-4.15,2.39-6.28,3.47a7.43,7.43,0,0,1-7,.05,34.6,34.6,0,0,0-5.21-2.23,9.31,9.31,0,0,0-3.46-.07,10.26,10.26,0,0,0,6.39,3,22.38,22.38,0,0,1,4.63,1.1c-.22.11-.44.23-.66.32L982.11,616A10.87,10.87,0,0,1,971,615a21.56,21.56,0,0,0-4.77-2.52,7.62,7.62,0,0,0-2.84-.06c.51.67,1.1,1.42,1.64,2.21.4.57,1,1.21.16,1.86-1.07.87-1.77.76-2.45-.18a5.6,5.6,0,0,0-8.44-.92,7.07,7.07,0,0,0-1.07,1.12c-.73,1-1.53.89-2.44.28s-.87-1-.17-1.73c.9-.89,1.75-1.84,2.57-2.7a6.91,6.91,0,0,0-7.6,1.33c-.66.56-1.43,1-2.1,1.54a5.65,5.65,0,0,1-5.78.88c-2.68-.94-5.29-2.06-7.92-3.11-.75-.29-1.49-.6-2.24-.9l0-.31a41.06,41.06,0,0,0,5.68-.77,23.25,23.25,0,0,0,5.33-2.45c-1.24-.26-2.25-1.15-3.64-.41a47.12,47.12,0,0,1-5.65,2.43,5.34,5.34,0,0,1-4.59-.5c-2.9-1.64-5.75-3.37-8.61-5.07-.17-.11-.27-.33-.56-.7,3.85.4,7.57,1.49,10.88-1.32-1.45-.92-2.84-1.43-4.52-.58a15.63,15.63,0,0,1-3.31,1.21c-2.65.66-4.89-.4-7-1.89a15.42,15.42,0,0,1-1.58-1.45c.33-1.08.67-2.17,1-3.26.14-.49.24-1,.35-1.51l3.78-.34c-.91-1.28-2.35-1.11-3.47-1.62,1-.08,2-1.23,2.41-2.89h1.24l1.93,1.79.46-.18V589c-.13-1.3.11-2.28,1.73-2.27.27,0,.53-.32.8-.49a.19.19,0,0,1,.14.12l.23.23v0l.14.22c2.83,1.87,3.68,4.73,3.95,7.88a1.55,1.55,0,0,1,0,.48c-.5,2.48.72,3.77,3.08,4.31a8.14,8.14,0,0,0-.77-4.58c-.74-1.39-1.52-2.75-2.29-4.13l.27-.25c.68.42,1.37.83,2,1.28,2,1.36,4.17,2.63,6.08,4.16a10.32,10.32,0,0,1,3.6,6.12c.22,1.08.65,1.89,1.89,2a10.25,10.25,0,0,1,1.72.53c-.69-3.38-2-6.24-5.09-8l.19-.29c.5.09,1,.15,1.5.27s1.07.3,1.59.49c2.11.78,4.28,1.44,6.31,2.38,2.5,1.17,3.58,3.72,5.2,5.75a7.34,7.34,0,0,0,2.76,2.26,17.88,17.88,0,0,0,8.71,1.33,11.45,11.45,0,0,0,3.82-1.13,5,5,0,0,0,1.6-1.94c.87-1.38,1.41-3.08,2.55-4.16s2.65-1.28,4-1.84c2.2-.91,4.42-1.77,6.62-2.67.54-.21,1.06-.47,1.59-.71l.33.27-5.79,9.06c2.91-.85,4.35-3,5.26-5.49a11.33,11.33,0,0,1,3.94-5.14c1.75-1.35,3.7-2.45,5.57-3.64a10.13,10.13,0,0,1,1.39-.54c-1.83,3.47-1.71,6.84-1.59,10.3,2.65-1.1,2.24-1.34,2.29-4.14a53.78,53.78,0,0,1,.34-5.39c.18-1.47,1.5-2,2.62-2.69l.64,0a.3.3,0,0,0,0,.08l.06,0-.1-.1,0-.27h0l.27-.16.05,0,.2-.14.22-.12a18.62,18.62,0,0,1,2.24.5,5.39,5.39,0,0,1,1.2.81,7.58,7.58,0,0,0,.8,5.11l1.6-1.37,2.32.7h0l1.45.65-3.82,2.37,1.18.4c1.25.11,2.49.25,3.74.31.26,0,.54-.23.81-.35l.23,0c-.08.77-.16,1.53-.24,2.36,1.23.21.07,1.22.21,1.9l-.07,0Z" transform="translate(-884.53 -435.16)"/><path class="cls-2" d="M945.39,439.55l-5.19,1.09c1,3.54,1.94,7,2.94,10.64-1,.23-2,.78-2.72.51s-.77-1.41-1.18-2.27a6.31,6.31,0,0,1-5.37,1.08,4,4,0,0,1-2-1.57c-1.23-1.86-.67-3.91,1.46-5.94a1.34,1.34,0,0,0-.48,0c-1.21.49-2.42,1-3.76,1.57,1.05,2.14,2.07,4.23,3.09,6.33.18.35.38.7.55,1,1.42,3,1.51,2.26-1.46,3.78l-5.42-9.59-1.58.8-1.58-2.67,1-.61c-1.65-2.54-1.62-4.72.3-6.72a6.55,6.55,0,0,1,6.08-1.71,30.17,30.17,0,0,1,6.67,2.08,5,5,0,0,0,3,.3c3.48-.6,7-1.37,10.47-1.66,4.18-.36,8.39-.37,12.59-.39a45.55,45.55,0,0,1,5.82.5,79.65,79.65,0,0,1,14.49,3.06,82.39,82.39,0,0,1,14.49,6c.23.13.5.6.43.79a4.59,4.59,0,0,1-1.06,2c-.36.29-1.19,0-2-.1l-2.82,4.73c-.72,1.23-1.41,2.48-2.19,3.68a1.11,1.11,0,0,1-1,.35,5.1,5.1,0,0,1-1.63-1,1.33,1.33,0,0,1-.21-1.1,10.15,10.15,0,0,1,.76-1.61,19.14,19.14,0,0,1-2.12-.66c-2.7-1.2-3.1-3.75-2.74-6.12.17-1.18,1.4-1.47,2.4-.77a1.86,1.86,0,0,0,1.3.35c.31-.07.79-.75.71-.93a2.61,2.61,0,0,0-1.12-1.2,29.26,29.26,0,0,0-2.84-.88c-.56-.18-.82-.09-1,.55-1,3.21-2.09,6.4-3.18,9.69l-3.43-1.29c.27-1,.53-1.9.79-2.84.48-1.77-.78-3.53-2.3-3a3.33,3.33,0,0,0-1.63,1.78,10.86,10.86,0,0,0-.41,2.76l-3-.31c0-1.41,0-2.8,0-4.19,0-.89-.27-1.58-1.23-1.51s-1.33.6-1.19,1.6a9.66,9.66,0,0,1,0,2.15c0,.59.41,1.49-.77,1.5-.93,0-2,.2-2.06-1.24s-.28-2.94-.25-4.41,1.61-2.77,3.17-3a4.52,4.52,0,0,1,4.86,2.1,5.47,5.47,0,0,1,6.35.63l.67-2.21a63,63,0,0,0-17.26-2.68c0,3.16,0,6.23,0,9.3,0,.74,0,1.33-1,1.29-.86,0-1.39,0-1.42-1.17-.07-3.1-.3-6.19-.46-9.36h-3.29c.2,2.77.39,5.49.59,8.21,0,.28,0,.56.08.83.21,1.15-.23,1.64-1.41,1.46a10.07,10.07,0,0,0-1.35,0l-.3-1.78c-1.51,2.13-3.53,1.86-5.47,1.79a3.45,3.45,0,0,1-2.72-2.88,5.93,5.93,0,0,0-.67-3.27C943.42,442,943.9,440.81,945.39,439.55Zm4.76-.55c.47,2.82.47,2.82-2.3,2.58,0,0-.09,0-.12,0l-1.08.57c.35.23.68.62,1.06.66a22,22,0,0,0,2.57,0v2c-.46.07-.94,0-1.22.22a3.89,3.89,0,0,0-.76,1.11,6.36,6.36,0,0,0,1.42.51c.24,0,.54-.29.79-.49,2.37-2,2.27-4.57,1.92-7.25Zm-16.64.54.12-.32a39.16,39.16,0,0,0-4.27-.7,5.62,5.62,0,0,0-2.49.56,1.66,1.66,0,0,0-.39,2.4c.52.85,1.09.41,1.73.15C930,440.9,931.74,440.23,933.51,439.54Zm3,5.07c-1.26,0-2.32.81-2.23,1.8a1.5,1.5,0,0,0,1.58,1.46,2.34,2.34,0,0,0,2.16-2.14C938,444.8,937.3,444.62,936.52,444.61Zm54,.59c-.19,2.71-.8,3.29-3.86,3.85a6.72,6.72,0,0,0,2,.55,1.48,1.48,0,0,0,1.16-.38c.7-1.08,1.28-2.25,1.91-3.41Z" transform="translate(-884.53 -435.16)"/><path class="cls-2" d="M1020,487.92l-.49.25-1,.23-1.21.33-.23.15c-.65.18-1-.18-1.2-.71l-.24-.73-.09-.25-.15-.23-.09-.49.18-.88,0,0,.64-.34.49-.17,1.67-.55,1.5-.6.43-.16.26-.06.22-.14.24,0,1-.44,1-.33.23-.15.49-.1.21-.14.27-.09.23-.15.24,0,1.24-.33-1-2.59-.89.52-2,.86-.21.14-1,.34-.22.14-.25.09-1.44.64-1.2.55-.48.19-.48.22-2,.19-.21-.45-.15-.23-.51-1.2,1.71-1.44,3-1.31-1.05-2.25a5.26,5.26,0,0,1-1.33.66c-1.44.22-2.16-.66-1.8-2.09.21-.81.39-1.63.67-2.41.21-.59.42-1.47.86-1.64a1.74,1.74,0,0,1,2.33,1l2.19-1.31-2.25-3.35c-2.7,1.89-5.25,3.7-7.85,5.45-.4.28-1.23.57-1.43.38a6.32,6.32,0,0,1-1.25-2c-.06-.12.38-.54.65-.74,2.42-1.8,4.86-3.58,7.46-5.49l-2.1-1.65c-2,1.8-4.29,3.73-6.47,5.74-.55.52-.89.56-1.37.05-.24-.26-.48-.53-.75-.77-.74-.63-.78-1.13,0-1.8,1.08-.86,2-1.9,3.12-3-1.26-1-1.63-2.76-3.47-2.92l-.37,4.69h-2.81c0-.69,0-1.39,0-2.09.15-2.66.29-5.33.49-8,.08-1,.87-1.21,1.66-1.11s1.39.2,1.16,1.33a5.16,5.16,0,0,0,.41,2l2.1-1.32c-1.3-1.22-2.42-2.3-3.56-3.34-.55-.5-.62-.92-.08-1.5,1.49-1.62,1.62-1.65,3.22-.07l11.22,11.06c1.23-1.48,2.93-1.65,4.74-1.5l2.4,1.26.15.17.79.78a.17.17,0,0,0,.09.18l1.37,2.65c.17,1.11.35,2.23.52,3.35v.72c0,.56,0,1.12,0,1.68l-.22,1.21h0l-.15.68-.1.26-.47,2.88c.2.4.4.81.59,1.22s.33.81.49,1.22a.27.27,0,0,0,.12.2c.31,1.47.31,1.47,2.15.72h2.16l.39.14.19-.1,0,0,.06.09.11,0,.19.26.95.6,1,.93.82,1.48.37,1.15L1037,486v2.15l0,.73-.17.72-.08.49-.15.46,0,.49a.39.39,0,0,0,0,.24l-1,2.4c-.53,1-1.06,1.92-1.6,2.88l-.08.24c-.09.53-.17,1.05-.26,1.58l.12,1.56.14.7.1,1.22v.68l-.09.26-1,.17-1.43.11h-.24a4.2,4.2,0,0,1-.7-1,7.93,7.93,0,0,1-.26-1.47l-1.44.23-1.44.08-.5.11-3.34.37-2.16.4-.48,0-1.29.17-.72-1.43-.12-1.3,0-.07-.06-.05,0-.24c0-.23,0-.47.07-.7l.93-.25,2.66-.35.46-.14,1-.21.61,0,.72-.08.46-.64-.06-.5-.15-.44,0-1a2.13,2.13,0,0,0-.09-.58c-.33-.63-.7-1.25-1-1.87l-1.5,1.47-.31.45-1,1.25-.12.38-.68.59-.24,0-.47-.07-.22-.23-1-.81a.18.18,0,0,0-.09-.1l-.33-.5.22-.7,1.31-1.9,1-1.2,1.11-1.48.22-.22.44-.33.74-.26c2.5-.72,4.17.4,4.58,3,.24,1.56.61,3.1,1,4.64,0,.17.35.28.53.42l.42-.25L1027.4,487l-.09-.5-.15-.22L1027,486l-.1-.22a.13.13,0,0,0,.09,0s0,0,0-.07l-.06.11h-.26l-.5.08-.22.15-1.7.58-.45.14h0l-1.54.43-.86.32-.6.18-.38.11Zm12.38,4.13a10.71,10.71,0,0,0,1.29-5.66c-.17-2.14-1.47-3-3.25-2.07C1031,486.87,1031.68,489.42,1032.35,492.05Zm-7.46-20.79a8.79,8.79,0,0,0-.85-5.85c-.71-1.16-1.79-1.69-2.74-1.21-.26.13-.55.76-.44.92C1022.15,467.17,1023.51,469.18,1024.89,471.26Zm-3.05,2.3-2.1,1.15c1.36,2.51,1.36,2.51,3.42,1.46Zm-12.47-15.42-1.26,1.37,2,2.27,1.19-1.5Z" transform="translate(-884.53 -435.16)"/><path class="cls-2" d="M920.84,457.27l.4.43,1.2,1.45c.35.6,1.19,1.12.33,1.92l-.22.22,0,0-.28.2c-.51.28-.85,1.09-1.62.49l-1.23-1.13-.08,0-.49-.56-1.17,1.44h0l-.66.53-.26.15-.71.35-1.2.32-.26.09-1.86-.07a23.61,23.61,0,0,1-2.86-1.13,1.49,1.49,0,0,1-.57-1.25c0-.33.53-.64.85-.94s.85-.52.82-.69a2.93,2.93,0,0,0-.72-1.5,1.28,1.28,0,0,0-1.24.08c-1,.82-1.8,1.77-2.69,2.68.49,1.08,2.25,1.26,1.94,3,1.53-.86,2.86-.33,4.16.44l.2.2.49.48a22.1,22.1,0,0,0,.35,3.27,6.25,6.25,0,0,0,1.15,1.74l.26,1.2-.1.46-.48.65-1.89.39-.4-.36-.63-.71c-.44-.72-.89-.49-1.34,0l-1.46.66a36.27,36.27,0,0,1-4,.1,3.6,3.6,0,0,1-2.76-5.11c.37-.79.81-1.55,1.21-2.32l-.35-.21-4,5.89,8.73,5.24c.12.38.43.83.32,1.11-.3.74-.47,1.67-1.48,1.87l-.07,0-.06,0-1-.48-1.25-.73h0l-.31-.16-2.36-1.09-.25-.16-1.61-.74-.5-.25-1.26-.72-.5-.17-.6-.48-.35.7-.81,1.48,2.69,1.26,1,.47,1,.48,2.87,1.37.42.27c.55.11.91,1.13,1.66.37h0c0,.1-.07.2-.11.31l.38.25.08.46-.27.76-1.68,1.86-1.41-.56c-.51-.12-.51-.12-.55,1L900.17,486h0l-.73.74-.49.4-.92.34-1.68.21a4.24,4.24,0,0,1-4.54-3.93l-1.42,4.16,5.24,1.25.93.33.51.15.86.19.08.05.09,0,3.22,1,.06-.06,0,.06-.71,3.36-6.7-1.44c-.15,1.08-.29,2.13-.43,3.19.06,0,.12.13.18.14.79,0,1.65,0,2,.92s-.32,1.65-.91,2.27a16.06,16.06,0,0,1-1.71,1.48,2.53,2.53,0,0,1-2.77.55c-1-.5-.82-1.61-.74-2.48.18-1.93.47-3.85.83-5.76.19-1-.33-1-1.07-1.06l-1.62,11.26-3.17-.27c.84-10.36,3.14-20.25,8.48-29.61-1.58.27-2.87.5-4.16.69-.65.09-1.73.32-1.88.07a7,7,0,0,1-.65-2.6c0-.18.45-.56.74-.62,2.32-.45,4.66-.84,7-1.29a2.08,2.08,0,0,0,1.19-.56c1.07-1.42,2.06-2.9,3.08-4.35l.81-1-.06-.62h0l.5-.05h0l.44-.66.75-.83c.9-.92,1.8-1.83,2.68-2.77.09-.11,0-.39,0-.59h0c.18,0,.44.12.53,0,.76-.72,1.48-1.47,2.22-2.2l2.21-2.14,0,0,0,.05.5-.5,1-.95,1.14-1,4.24-3.14.74.09a.13.13,0,0,0,.13.15l.3.31a.15.15,0,0,0,.1.17l.17.21.71,1.46L916,451.78l.73.65.73.81.39.56.07.05c.26.25.51.51.76.77l0,0c.11.14.22.27.32.41l0,0,.37.36,0,0C919.81,456,920.33,456.64,920.84,457.27Zm-22.51,23.91a1.76,1.76,0,0,0-2.88.36c-.43.59-.84,1.32-.12,1.9.46.37,1.3.79,1.73.61A2.39,2.39,0,0,0,898.33,481.18Zm14.79-27.12-1,.84c2.58,1,2.19,2.89,1.82,5a8.61,8.61,0,0,0,2.08-1.49,1.16,1.16,0,0,0,0-1.1C915.12,456.18,914.15,455.19,913.12,454.06Zm-6.88,11.12c-.75.7-1.67,1.44-1.35,2.58a1.28,1.28,0,0,0,1.83.7Zm4.35.94c-.43-.39-.71-.85-.94-.82a1.11,1.11,0,0,0-.75.72c0,.23.4.67.69.73S910.14,466.42,910.59,466.12Zm-7.46-1.85a1.58,1.58,0,0,0,.19-.34c0-.05-.05-.12-.08-.17s-.17.1-.19.17S903.08,464.09,903.13,464.27Z" transform="translate(-884.53 -435.16)"/><path class="cls-3" d="M1014.23,530.16l-.08.46c-.12,2-.56,3.86-2.65,4.8h-29v4l-2.67.84c-.94,0-1.23-.63-1.2-1.47,2.12-1,2.16-1.1,1.72-3.39h-4.82l2.84-.39c-.28-.79-.5-1.36-.7-1.94a3.58,3.58,0,0,0-.29-1c-.52-.78-1.09-1.53-1.68-2.26-1.77-2.22-3.81-4-6.87-4l1.59-2.29-2.42-1.37.63-.92,2.72-.21c.43.28.84.59,1.28.84a3.38,3.38,0,0,0,1.35.63c1.78.07,3.57,0,5.36,0,.62,0,.82-.26.83-.85,0-1.11.11-2.22.18-3.33.2-.19.44-.57.61-.55,1,.16,1-.43,1-1.13s.1-1.4.15-2.11v7.82a4.07,4.07,0,0,0,.57.09h16.51a4.1,4.1,0,0,0,1-.26l1-.69h0l.91-2.42a.24.24,0,0,0,.05-.2,6.23,6.23,0,0,0,.22-1.11c0-2.28,0-4.55.06-6.83,0,.71.15,1.41.16,2.12,0,1.66,0,3.32,0,4.77l11.54,2v-6.18c.07.45.17.91.2,1.36.08,1.29.13,2.59.19,3.88l.06,9.31-.21,1.49a.17.17,0,0,0,0,.18Z" transform="translate(-884.53 -435.16)"/><path class="cls-4" d="M946.34,457.7l.42-.05,1.73-.43,1.65-.15,1.45-.34,1.65-.05,3.64-.42h4.23l3.17.21,2.61.26,1.67.34,1,.09,1.44.27,1.62.28.74.27.95.2.53.2,1.15.28,1.25.44a.16.16,0,0,0,.18,0l.78.41.46.08.47.26.67.21,1.26.5,1.17.64.75.3h0l1,.5h0l3.39,1.87.43.28,1,.53.22.19,1.25.92a.15.15,0,0,0,.18.05l3.18,2.59.05.06h.08l.87.8.08.09,1.3,1.26h0l.5.47h0l1,.77a.19.19,0,0,0,.15.15l.3.34a.14.14,0,0,0,.06.17l.26.38.08,0a.25.25,0,0,0,.16.16.14.14,0,0,0,.06.12l2.28,2.68h0l.48.51.68.94,2.21,2.87h0l.47.74.19.24.29.49a.24.24,0,0,0,.05.2l.2.26h0l.24.3a.13.13,0,0,0,0,.17l1.87,3.19a.14.14,0,0,0,0,.17l.87,1.92.23.76.79,1.93a.2.2,0,0,0,0,.19l.42,1h0c0,.38,0,.77,0,1.16h-4.76c-.31-.73-.63-1.45-1-2.18h0l-.54-1.41-.42-1-.5-1.22a.22.22,0,0,0-.06-.2l-.38-.5-.22-.5-1.27-2.13-1.24-1.67-.66-.78a.16.16,0,0,0,0-.18c-2.06-2.4-4-4.95-6.22-7.16a68.64,68.64,0,0,0-6.21-4.87h0l-5.3-3.36h0c-1-.45-1.91-.94-2.89-1.33-1.75-.7-3.53-1.33-5.29-2a.27.27,0,0,0-.23-.05L971,462a.2.2,0,0,0-.2,0l-1.28-.42h-1l-2.34-.49-1.44,0-3.6-.46h-5.52c-.82.06-1.66.08-2.47.2-1.19.19-2.37.45-3.55.68l-.46.07-1.48.42h0l-4.35,1.46a.16.16,0,0,0-.18.05c-1.45.49-2.93.91-4.34,1.52a31.94,31.94,0,0,0-3.16,1.79l-1.15.65-3.62,2.23-.24.2-1.71,1.23-.21.2-.25.28h0a15.52,15.52,0,0,0-2.22,1.7c-2.34,2.6-4.61,5.26-6.9,7.9l-.19.25-3.8,6a.18.18,0,0,0-.05.19l-.31.75-.15.22-.51,1.22h0l-.19.51a.1.1,0,0,0-.06.15,15.31,15.31,0,0,1-1,2.11,1.91,1.91,0,0,1-1.19.82c-1.39.09-2.79,0-4.19,0v-.63c.42-1,.81-2,1.27-3,.74-1.58,1.52-3.15,2.29-4.72l.27-.45.5-1h0c.48-.81,1-1.61,1.45-2.41h0l.79-1.19.16-.25.44-.52a.17.17,0,0,0,.05-.18l1.72-2.18.67-.71.19-.27.3-.45.43-.52a.19.19,0,0,0,.05-.19l.26-.27v0l1-1,.21-.21.66-.78c0-.11,0-.22,0-.34v0l0-.39,0,0c0,.09.08.18.11.27.64.57.67-.15.9-.43a.17.17,0,0,0,.09-.18l1.9-1.72.25-.48,2.14-1.92.23-.21,1.47-1.23.91-.52.78-.44.22-.18.47-.3h0l1-.5.46-.28,2-1.15a.28.28,0,0,0,.2,0l.3-.19.44-.23,1.19-.51h0l1-.47a.17.17,0,0,0,.18-.05l1-.43.92-.3.29-.18.7-.17.71-.31h0l1.23-.49a.19.19,0,0,0,.19,0l2.95-.91,1.16-.2Z" transform="translate(-884.53 -435.16)"/><path class="cls-5" d="M968.88,525.84c3.06,0,5.1,1.77,6.87,4,.59.73,1.16,1.48,1.68,2.26a3.58,3.58,0,0,1,.29,1c.2.58.42,1.15.7,1.94l-2.84.39a31.78,31.78,0,0,1-2.44,2.07c-3.25,2.28-7,3-10.86,3.17a46.38,46.38,0,0,1-8-.43,18.25,18.25,0,0,1-9-3.55,5.25,5.25,0,0,0-4-1.22,2.33,2.33,0,0,1-.59,0c-.54-.09-1.11-.4-1.25.54-.12.76-.14,1.26.81,1.49a21.19,21.19,0,0,1,2.54,1c5.42,2.13,10.83,4.25,16.27,6.33a2.74,2.74,0,0,0,1.72.08c3.1-1,6.16-2.17,9.25-3.24,2.86-1,5.74-1.92,8.61-2.89,0,.84.26,1.43,1.2,1.47l-2.2,1.07,2.86,4.21c-.75.2-.69.81-.73,1.39a5.11,5.11,0,0,1-.2.86c-2.55,0-5.1.1-7.65.09l-34.09-.15c-.43-.46-.74-.91-.2-1.52.1-.13,0-.45,0-.68l3.36-4.78a28.55,28.55,0,0,0-3.34-1.55,1.19,1.19,0,0,1-.95-1.47c0-.71,0-1.42,0-2.2l-1.67-.15-2.1-.63a15.46,15.46,0,0,1,.41-2.83,31.57,31.57,0,0,1,1.93-4.7c.41-.81,1.29-1.36,1.87-2.09s1.39-1.42,2.57-.82c-.23-.68-.43-1.27-.64-1.86l.07,0h.07a10,10,0,0,0,1.88.47c1.23.08,2.47,0,3.7.05l2.88,1.42a8.25,8.25,0,0,1,1.74,4,6.35,6.35,0,0,1-2.28,5.58c3.44,2.75,7.55,3.16,11.55,3.77,1.53.23,3.18-.42,4.76-.37,2.8.08,5-1.29,7.37-2.47C967.47,531.6,966.8,528.35,968.88,525.84ZM939.78,546h14.7l0-.13-11.44-4.18Zm38,0c-.79-1.13-1.46-2.13-2.21-3.08a1.07,1.07,0,0,0-.92-.37c-3.26,1.07-6.49,2.2-9.74,3.31l0,.14Z" transform="translate(-884.53 -435.16)"/><path class="cls-6" d="M885.08,538.79V527.94c1,3.09,3.27,5,6,6.9a3.53,3.53,0,0,0-1.18-2.88,24.49,24.49,0,0,1-3.91-4.53,6.94,6.94,0,0,1-1.07-3.47c-.14-3.43-.07-6.87-.07-10.31a1.05,1.05,0,0,1,.36-.79,8.13,8.13,0,0,1,.38.85,23.36,23.36,0,0,0,1,3.37,9.7,9.7,0,0,0,1.67,2l1.94,2.12.38-.26-1.12-2.09c-.75-2.95-.81-5.75.83-8.55a32.8,32.8,0,0,0,2-5.53l.44-1.31a13.51,13.51,0,0,1,1,2c.68,2.51,1.37,5,1.92,7.56a10.73,10.73,0,0,1-.44,6.21c-.42.71-.85,1.41-1.37,2.26,1.12-.1,1.45-.81,1.81-1.48l4.63-8.89c0,.62,0,1.06,0,1.49-.06,3.15-.08,6.31-.21,9.45a10.87,10.87,0,0,1-2.77,6.66,25.89,25.89,0,0,1-2.58,2.75c-.93.8-.85,1.58-.18,2.77a29.05,29.05,0,0,0,3.39-3.47,29.55,29.55,0,0,0,2.11-4.36v10.88c-.15.8-.3,1.61-.44,2.41a.18.18,0,0,0,0,.22,14.2,14.2,0,0,1-1.18,2c-1.19,1.43-2.45,2.8-3.7,4.18a1.88,1.88,0,0,0-.12,2.62c1-1.15,2-2.2,2.9-3.24a10.35,10.35,0,0,0,1.39-1.59,27.47,27.47,0,0,0,1.21-2.78l.5,1.07a27.91,27.91,0,0,0,0,4.19c.37,2.47-1.22,3.76-2.88,4.85a10.15,10.15,0,0,1-9.13,1.08c-1.57-.52-3-1.34-2.92-3.42,0-.19-.28-.4-.43-.6l-.09-.47v-6.64c1.43,2.93,4,4.46,6.2,6.57a3.06,3.06,0,0,0-1.35-3.23C887.92,543,885.75,541.5,885.08,538.79Z" transform="translate(-884.53 -435.16)"/><path class="cls-2" d="M940.77,629.73c2.05,3,1.14,7.12-5.07,8.19l1.55,3.1a29.16,29.16,0,0,1-4-.9c-.47-.18-.83-1-1-1.6a2.32,2.32,0,0,0-1.48-1.79,4.59,4.59,0,0,1-2.75-4.4,3,3,0,0,1,2.15-2.86c1.31-.37,2.86-.56,3.62.72s1.76,2.73,1.13,4.55a2.86,2.86,0,0,0,3.09-1.16,2.14,2.14,0,0,0-.5-2.82c-1.55-1.65-3.22-3.2-4.85-4.79a2.16,2.16,0,0,1-.11-2.82,1.35,1.35,0,0,1,1,0c3.77.82,7.53,1.67,11.3,2.5a3.94,3.94,0,0,0,.77,0l.17-.9-16.3-4.06c-2.06,4.65-4.22,9.54-6.42,14.49-.88-.36-1.67-.68-2.51-1l3.1-7.15c-3.59-.53-6.38,1.72-9.68,2.33l-.9-2.72,5.24-2c-1.92-3-.46-5.57,1-8.21-.44-.22-.82-.44-1.22-.6-1-.39-1.35-.86-.71-2,.51-.87.86-1,1.77-.58,4.69,2,9.33,4.09,14.14,5.71a77.14,77.14,0,0,0,30,3.67c.67,0,1.35,0,2.09,0a9.13,9.13,0,0,1,.23,1.09c.05.39.05.79.07,1.28l-1.91.35c.31,4.43.62,8.89.94,13.55l-2.63.27c-.22-2.7-.44-5.29-.67-7.92h-2.94a7.19,7.19,0,0,1,.43,1.54c0,.36-.12,1-.35,1.06-.4.17-1.16.21-1.36,0a13.29,13.29,0,0,1-2-3.08c-.49-1.14.15-1.77,1.43-1.75,1.47,0,2.94,0,4.59,0l-.25-3.61h-7.54c-.43,4.29-.86,8.7-1.3,13.14h-2.88L950.67,625l-2-.15-1.95,13.22a9.85,9.85,0,0,1-1.54,0c-1.35-.22-1.46-.46-1.21-1.84s.46-3,.68-4.49l.18-.77,0-.48.32-2-6.59-1.22Zm-18.94-12c-.44.86-.85,1.71-1.32,2.53a2.29,2.29,0,0,0,.11,2.78,3,3,0,0,0,2.88,1.07c1.65-.27,2.81-1.91,3.1-4.36Z" transform="translate(-884.53 -435.16)"/><path class="cls-1" d="M961.9,586l23.15,0h5.69c-.47.42-.66.64-.89.8-2.72,1.92-5.36,4-8.2,5.7a27.18,27.18,0,0,1-9.54,3.68c-3.64.6-7.24,1.44-10.89,2a17.63,17.63,0,0,1-4.09-.18,49.07,49.07,0,0,1-10.3-2,48.53,48.53,0,0,1-12.36-6q-2.72-1.81-5.45-3.61l.08-.37h27.76l.92-.15a3.6,3.6,0,0,1-1,.36c-1.91,0-3.82,0-5.74,0a6.68,6.68,0,0,0-.95.16c3.3,2.59,13.45,2.67,16.4-.17-.84,0-1.5,0-2.16,0S962.71,586.13,961.9,586Z" transform="translate(-884.53 -435.16)"/><path class="cls-6" d="M1030.51,511.22a.2.2,0,0,0,.06.22c1.08,2.28,2,4.59,1.43,7.2l-.06.45-2.06,3.28c1.37,0,2.85-1.41,3.49-3.25a.12.12,0,0,0,.06-.17l.42-1.27,0-.47c.3-1.44.6-2.89.91-4.33,0-.29,0-.58.08-.87.15.15.39.28.45.46.18.64.3,1.29.44,1.93-.07,3.7-.15,7.41-.21,11.12a8.08,8.08,0,0,1-3.58,6.85c-1.34,1-2.94,1.92-3.06,4a8.6,8.6,0,0,0,6-5.77c.14.29.39.58.39.87,0,2.91,0,5.82,0,8.73A8.2,8.2,0,0,0,1032,542c-.85.65-1.28,1.84-2.54,2-.14,0-.37.1-.41.21a1.23,1.23,0,0,1-1.65.64c-.64-.2-.76.13-1,.44a1.82,1.82,0,0,1-2.57.41c-.39-.25-.82-.43-1.23-.64-.89-.91-1.8-1.8-2.67-2.73a14,14,0,0,1-.88-1.15l0-.44-.42-2.48c0-3.33,0-6.66-.07-10v-.48h0c.18.14.43.25.52.44.49,1,.93,2.09,1.4,3.14,1,2.59,2.78,5,5.19,5,.15-.8.06-1.44-.81-1.82a4.42,4.42,0,0,1-1.34-.91c-.89-.94-1.72-2-2.58-2.93-.17-.34-.36-.67-.5-1-.46-1.17-.91-2.35-1.36-3.53l0-.25,0-1.44-.42-7.72,0-.92v-.48l0-.44h.86l.1.44c.22,2.7,2.85,6.39,4.78,6.6a8.44,8.44,0,0,1-1.5-6.22,4.8,4.8,0,0,0-.12-1.12l.22-.33q1.19-2.34,2.38-4.68h0l.42-1.46,0-.47.52-2.37h0c.09-.64.17-1.28.25-1.93v0l.1,0,.09-.06a.24.24,0,0,0,.2,0l.73,1.44h0c.33,1,.66,1.91,1,2.87h0l1,1.74a.12.12,0,0,0,0,.16Z" transform="translate(-884.53 -435.16)"/><path class="cls-7" d="M1007,594.65l-1.45-.65.85-.12-.18-.4-.67.52-2.32-.7c-.07-1.84-.06-3.68-.23-5.51a11,11,0,0,1,2.33-8.47,40.27,40.27,0,0,0,3.5-6.07c.24-.44.43-.92.65-1.38l.32,0c-.14,2.23-.46,4.47-.38,6.7s.56,4.57.87,6.9c1.34-.75,1.22-1.94.89-4.24a32.74,32.74,0,0,1-.74-5.86,10.36,10.36,0,0,1,1.94-6l1.74-.18.18-1.67,1.28,1.94a10.09,10.09,0,0,0,2.34,4.74,3.07,3.07,0,0,0,.35-3.62c-.57-1.17-1.12-2.35-1.68-3.52H1019a2.15,2.15,0,0,1,.11-.25,11.77,11.77,0,0,0,1.37.87,33.07,33.07,0,0,1,4.51,2,3.78,3.78,0,0,0,2.46.78c-.59.25-1.16.51-1.75.73a5.75,5.75,0,0,0-3.68,4l4.29-1.44a6,6,0,0,1,3.25,1.75,46.59,46.59,0,0,1-2.47,5.25c-1.16,1.88-3.24,2.61-5.3,3.11a37.94,37.94,0,0,1-5.18.91,3.41,3.41,0,0,0-2.76,1.64c-.21.33-.46.63-.86,1.18a56.54,56.54,0,0,0,6-1.07,60.71,60.71,0,0,0,5.72-2.24c-.34.55-.63,1.09-1,1.59-1.25,1.83-2.5,3.68-3.8,5.48-2.48,3.42-6,4.08-9.89,3.55C1009.08,594.77,1008,594.73,1007,594.65Z" transform="translate(-884.53 -435.16)"/><path class="cls-7" d="M915.3,590.64h-1.24c-.37,1.66-1.37,2.81-2.41,2.89a49.26,49.26,0,0,1-6-.29,9.91,9.91,0,0,1-6.64-4.68c-1.11-1.63-2.15-3.32-3.21-5a4.42,4.42,0,0,1-.3-.9c1.62.62,3,1.29,4.52,1.7s3,.54,4.9.85c-1.46-1.8-2.66-3.09-5-3.22-5.43-.3-7.19-3.1-8.71-7.85-.1-.5.5-1.25-.51-1.42v0c.06-.38.13-.76.2-1.18l1.08-.09a.26.26,0,0,1,.22.07l.76.37a16.25,16.25,0,0,0,2.4.92,17.21,17.21,0,0,0,2.6.18,2.08,2.08,0,0,0-1.7-1.78c-1.38-.3-2.72-.78-4.09-1.18.15,0,.35-.06.43-.16a30.35,30.35,0,0,1,2.4-3c1.48-1.39,3.11-2.63,4.69-3.91a.76.76,0,0,1,.67-.13c1.07.58,1.7-.14,2.38-.73a13.08,13.08,0,0,1-2.31,6.89,1.65,1.65,0,0,0,.26,2.56c1.58-1.93,3.81-4.63,3.09-9l3.85,8a14.77,14.77,0,0,1-1.22,10.11,1.14,1.14,0,0,0,.14,1,23.64,23.64,0,0,0,1.89,1.83c1.4-3.81.87-7.54.24-11.47l.8.69a.16.16,0,0,0,.08.2l.41.5h0l.48.76c1.13,1.75,2.26,3.49,3.38,5.24l.49.93v0l.44,1,.07.24a20,20,0,0,1,.5,8.18Z" transform="translate(-884.53 -435.16)"/><path class="cls-2" d="M999.18,613l1.2,2.08-1.64,1,5.86,10.3a5.51,5.51,0,0,1,.62,1.14,1,1,0,0,1-.23.89c-.75.51-1.58.92-2.51,1.44-1.17-2.17-2.32-4.28-3.5-6.46l-1.88.81a4.33,4.33,0,0,1,.54,1.2,3.29,3.29,0,0,1-.17,2,2,2,0,0,1-1.81.25,40.94,40.94,0,0,1-3.8-1.71l.77,1.75c-1.45.57-2.88,1.12-4.3,1.69-1.65.66-2,1.13-1.76,2.25.18.82,1.53,1.54,2.72,1.5a7.33,7.33,0,0,0,6-2.88c2.56,1.52,2.65,2.12.29,3.77a9.59,9.59,0,0,1-9.71,1.24c-2.46-1-3.33-3.15-2.66-5.77a3.55,3.55,0,0,0,.08-.47c-1.39-.8-2.53-1.76-2.27-3.57.38-2.59,2.61-2.81,4.57-3.7-.27-.06-.58-.22-.82-.15-1.92.5-3.83,1-5.85,1.61l3.19,12.95L979,637l-.63-2.54-.31-.31-3.67,4.62-.34-.46-2-1.79,1.32-1.39c-2.29-1.59-3.45-3.73-2.64-6.5.51-1.76,2.37-3,4.56-3.42l.58,2.18-1.55.76c.53.33,1,.61,1.42.87l1.52.83c-.46-2.09-.88-4-1.31-6l-6.69,1-.45-2.39A88.52,88.52,0,0,0,999.18,613Zm-10.83,7.48c.21,1.15,1.57,2.06.65,3.42s-2.17.92-3.37,1c-.66.07-1.43.4-1.1,1.17a1.78,1.78,0,0,0,1.56.78,45.81,45.81,0,0,0,4.65-1.51,1.32,1.32,0,0,0,.65-.42c.39-.57.71-1.19,1.2-2l-1.78-3.44Zm5.57-2.23,1.91,3.65,2-.72c-.69-1.28-1.35-2.51-2-3.77ZM976.29,632l-2.85-1.34C973.85,632.37,975,632.89,976.29,632Z" transform="translate(-884.53 -435.16)"/><path class="cls-3" d="M939.08,522.43l.64,1.86c-1.18-.6-1.9,0-2.57.82s-1.46,1.28-1.87,2.09a31.57,31.57,0,0,0-1.93,4.7,15.46,15.46,0,0,0-.41,2.83l2.1.63-21.77,0-2.75-.42-.42-.06-1.93-1.21h0a7.4,7.4,0,0,1-1.75-4.42c.05-9.79,0-19.58,0-29.38a10.86,10.86,0,0,1,.18-1.38c0,1,0,2,0,3q0,11.38.06,22.77a5.11,5.11,0,0,0,.41,1.37,9.27,9.27,0,0,0,1.3-.52c1.31-.74,2.53-1.64,3.89-2.24,2.34-1,4.76-1.89,7.33-2.89v-9.28c.12-.54.23-1.09.35-1.63a9.55,9.55,0,0,0-.12,1.06q0,4.6,0,9.21a3,3,0,0,0,3.13,3.12c1.2,0,2.39,0,3.59,0l10.16-.08.23-4.83c2,0,2.07.07,2.08,2C939.08,520.51,939.08,521.47,939.08,522.43Z" transform="translate(-884.53 -435.16)"/><path class="cls-8" d="M1027.46,570.49a3.78,3.78,0,0,1-2.46-.78,33.07,33.07,0,0,0-4.51-2,11.77,11.77,0,0,1-1.37-.87,2.15,2.15,0,0,0-.11.25h-2.41a39.63,39.63,0,0,1-.44-4.58c0-2.79.26-5.57.42-8.36a6.08,6.08,0,0,1,.16-.83A27.11,27.11,0,0,0,1019,558a26.5,26.5,0,0,0,3.76,3.4,2.62,2.62,0,0,0-.82-2.67c-2.82-2.73-3.56-6.12-3.38-9.86,0-.52,0-1,0-1.55.08-1.14.15-2.28.23-3.42,0-.43.09-.86.13-1.28a11.07,11.07,0,0,0,6.8,6.73,2.14,2.14,0,0,0-.85-2.47l-2.29-1.86c.41.21.84.39,1.23.64a1.82,1.82,0,0,0,2.57-.41c.24-.31.36-.64,1-.44a1.23,1.23,0,0,0,1.65-.64c0-.11.27-.19.41-.21,1.26-.14,1.69-1.33,2.54-2a8.06,8.06,0,0,1,3.31-1.77c0,.08,0,.17.07.26a11.4,11.4,0,0,1-3.84,4.56,16.39,16.39,0,0,0-2.41,2.14,4.12,4.12,0,0,0-.73,2.08c2.61-1.62,5.65-2.59,6.79-5.87l.49.23c0,2,.1,4,0,6a27.1,27.1,0,0,1-.75,4.08,4.63,4.63,0,0,1-2.21,2.83c-1.59,1-3.23,2-4.86,2.93-.69.41-1.28.85-1,1.93a11.21,11.21,0,0,0,8-5.19c-.15,1.06-.28,2.12-.46,3.17a28.09,28.09,0,0,1-.88,4.19,13.45,13.45,0,0,1-2.12,4.31C1030.34,569,1028.77,569.64,1027.46,570.49Z" transform="translate(-884.53 -435.16)"/><path class="cls-4" d="M919.64,510.75V520c-2.57,1-5,1.86-7.33,2.89-1.36.6-2.58,1.5-3.89,2.24a9.27,9.27,0,0,1-1.3.52,5.11,5.11,0,0,1-.41-1.37q-.06-11.38-.06-22.77c0-1,0-2,0-3a3.38,3.38,0,0,1,2.35-3,21.14,21.14,0,0,1,4.17-.46l6.72.08,1,.76c-.35.6-.7,1.26-1.11,1.88-.88,1.31-1.87,2.55-2.68,3.9-1.12,1.87-1.52,3.83-.21,5.82a13.67,13.67,0,0,1,1.1,2A1.83,1.83,0,0,0,919.64,510.75Z" transform="translate(-884.53 -435.16)"/><path class="cls-9" d="M919.64,510.75a1.83,1.83,0,0,1-1.71-1.25,13.67,13.67,0,0,0-1.1-2c-1.31-2-.91-3.95.21-5.82.81-1.35,1.8-2.59,2.68-3.9.41-.62.76-1.28,1.11-1.88l-1-.76,1.44-.08H926l.06-.33-2-2.05-.56-.94-.05-.43c1.09-.67-.49-.77-.16-1.18A103.59,103.59,0,0,1,936,475.77c.42.38.93.3,1.07-.53l1.8.19a6,6,0,0,1,1.45,1c1.17,1.41,2.24,2.89,3.35,4.35l.22.72-.18.4c-.53.11-1.23,0-1.58.34a61,61,0,0,0-9.8,10.69,7,7,0,0,1-1.35,1.17l-.24-.18v1.67l-.55.54-.73-.38c-.59,1.38-1.25,2.71-1.72,4.1a16.26,16.26,0,0,0-.82,3.64,26.43,26.43,0,0,0,.06,3.55l-1.05.55a29.44,29.44,0,0,1-3,0,2.88,2.88,0,0,0-2.93,1.54Z" transform="translate(-884.53 -435.16)"/><path class="cls-9" d="M997.34,492.22l-.44.94-.91,1,0,.42-.77.79c4.9,0,9.49,0,14.08,0a11.33,11.33,0,0,1,1.4.16c-2.87,0-5.74,0-8.61.08a1.39,1.39,0,0,0-.91.38c-.09.11.12.6.31.82,1.09,1.3,2.21,2.57,3.31,3.86a4.89,4.89,0,0,1,1.38,3.95,6,6,0,0,1-2,4c-.67-.18-1.13-.46-1.37-.34s-.6.69-.75.87c.06.5.1.88.15,1.26l-.46-.48h0l-.49-.51-1.92-1a.29.29,0,0,0,0-.16,5,5,0,0,0-1.09-.27c-1.24,0-2.48,0-3.71,0,.27-1.15.54-2.3.82-3.45a5.5,5.5,0,0,0-.45-3.81c-.92-1.9-2.65-3.35-3-5.53a.7.7,0,0,0-.18-.31c-.57-.65-1.19-1.26-1.73-1.94A52.81,52.81,0,0,0,981,484c-1-.8-1.52-2.59-3.37-2.25-.14,0-.34-.3-.53-.44s-.58-.37-.88-.55a10.07,10.07,0,0,1,.93-1.35,14.34,14.34,0,0,1,4.94-3.42h0l1.94-.5h3.52l1,.45H985l12.52,13.87.38,0v-4.69a.35.35,0,0,0,.2,0v0q-.21,3.1-.4,6.21l-.27.73A.36.36,0,0,0,997.34,492.22Z" transform="translate(-884.53 -435.16)"/><path class="cls-4" d="M1002.2,510.45l-.15-1.26c.15-.18.37-.67.75-.87s.7.16,1.37.34a6,6,0,0,0,2-4,4.89,4.89,0,0,0-1.38-3.95c-1.1-1.29-2.22-2.56-3.31-3.86-.19-.22-.4-.71-.31-.82a1.39,1.39,0,0,1,.91-.38c2.87-.05,5.74-.06,8.61-.08l.19-.05.48.08,1.89,1h0l.49.49h0c.17.71.35,1.42.53,2.13v20.62l-11.54-2c0-1.45,0-3.11,0-4.77,0-.71-.11-1.41-.16-2.12l-.27-.06h0Z" transform="translate(-884.53 -435.16)"/><path class="cls-8" d="M902.8,562.1c-.68.59-1.31,1.31-2.38.73a.76.76,0,0,0-.67.13c-1.58,1.28-3.21,2.52-4.69,3.91a30.35,30.35,0,0,0-2.4,3c-.08.1-.28.11-.43.16a5.53,5.53,0,0,1-3.47-3.64c-1.13-3.42-2.1-6.88-3-10.44,2.2,2.4,4.46,4.53,7.75,5.06l.29-.33a13.27,13.27,0,0,0-1.32-1.18c-1.17-.8-2.45-1.45-3.57-2.31a9.85,9.85,0,0,1-3.84-8.78c.15.2.44.41.43.6-.11,2.08,1.35,2.9,2.92,3.42a10.15,10.15,0,0,0,9.13-1.08c1.66-1.09,3.25-2.38,2.88-4.85a27.91,27.91,0,0,1,0-4.19l.15,1.29c.09.81.17,1.62.26,2.43a20.85,20.85,0,0,0-.2,2.94,9.49,9.49,0,0,1-1.86,6.58c-.67.86-1.38,1.7-2.1,2.52a1.77,1.77,0,0,0-.06,2.65c2.32-2.32,4.18-4.94,4.63-8.37l.46.09Z" transform="translate(-884.53 -435.16)"/><path class="cls-3" d="M937.63,545.51c0,.23.14.55,0,.68-.54.61-.23,1.06.2,1.52,0,1.68,0,3.37.08,5,0,.17.57.43.88.45,1.27.07,2.54.06,3.81.07l-1,.62,1,.76a5.55,5.55,0,0,1-1.28.44c-1.13.09-2.27.1-3.41.14l-.47.37-.29.19c-.78,1.19-2,2.29-2.23,3.59-.34,1.61.06,3.38.14,5.08a5.36,5.36,0,0,0,1.1.22h46.57a6.2,6.2,0,0,0,1.11-.21,4.26,4.26,0,0,0,.29-1.07,23.06,23.06,0,0,0-.17-3,2.72,2.72,0,0,0-.62-1.44c-1.21-1.27-2.51-2.45-3.78-3.66-1.05-.07-2.11-.09-3.15-.21s-2-.36-3.1-.58l3.14-1.24h3.12v-5.52a5.11,5.11,0,0,0,.2-.86c0-.58,0-1.19.73-1.39a3,3,0,0,1,1,2.64c-.11,1.18,0,2.4-.24,3.55-.39,2.14.66,3.5,2.16,4.73a26.81,26.81,0,0,1,2.13,2,1.15,1.15,0,0,1,.24.74c0,2.27,0,4.54,0,7h-8.25l-34.91,0h-9.83a60.36,60.36,0,0,1,.08-7,6.09,6.09,0,0,1,1.79-3c1.78-1.89,1.69-4.09,1.34-6.34A4.1,4.1,0,0,1,937.63,545.51Z" transform="translate(-884.53 -435.16)"/><path class="cls-4" d="M938.83,475.43l-1.8-.19c-.14.83-.65.91-1.07.53a103.59,103.59,0,0,0-12.72,14.38c-.33.41,1.25.51.16,1.18l-1.28-2.47-.07-.7-.48-1.24,0-.44v-2.64l.05-.44.32-1.28a.12.12,0,0,0,.1-.17,11.06,11.06,0,0,1,4.1-6,27.07,27.07,0,0,1,3.65-2h0l6.22,0,.08,0h.1Z" transform="translate(-884.53 -435.16)"/><path class="cls-1" d="M926.21,554.9l-3,2.24H932a1.59,1.59,0,0,1,.15.4c.15,2.36.14,2.37-2.25,2.36l-10.3,0c-.88-.14-1.76-.31-2.65-.4a1.58,1.58,0,0,1-1.36-.66,3,3,0,0,0-2.89-1.58,34.44,34.44,0,0,1-4.43,0h8.1l.2-.34c-4.28-.71-5.71-3.78-6.5-7.67l4,1.11a1.42,1.42,0,0,0,.72,1.6c.35.19.54.66.83,1,.55.6,1.12,1.18,1.81,1.92.41-1.85.63-1.94,2-1.07.24.15.41.43.66.5a15,15,0,0,0,2.78.67C924,555,925.1,554.92,926.21,554.9Z" transform="translate(-884.53 -435.16)"/><path class="cls-1" d="M1006.53,550.62l2.79-1.23c-.79,3.68-1.16,7.27-5,9.07h7.84v2.67H988.6v-2.65H995c.08.08.21.25.24.24a4.76,4.76,0,0,1,3-.58,9.46,9.46,0,0,0,3.76-.64,16.69,16.69,0,0,0,2.86-1.58c0-.27,0-.74.13-.86,1-.71,1.11-1.87,1.63-2.83A1.33,1.33,0,0,0,1006.53,550.62Z" transform="translate(-884.53 -435.16)"/><path class="cls-8" d="M957.78,585.93l-.92.15a35.47,35.47,0,0,1-3.24-1.68c-2.27-1.46-3.06-3.78-3.55-6.29,3-.3,6.24,1.53,6.68,3.27,1-2.22,2-4.49,3-6.76h.48c.86,2,1.71,4,2.45,5.72l2.11-2.16c-.13,1.52.62,3.08-1.09,4.43s-2.86,2.84-5.14,2.78C958.29,585.39,958,585.74,957.78,585.93Z" transform="translate(-884.53 -435.16)"/><path class="cls-10" d="M1006.53,550.62a1.33,1.33,0,0,1,.07,1.61c-.52,1-.62,2.12-1.63,2.83-.17.12-.1.59-.13.86a16.69,16.69,0,0,1-2.86,1.58,9.46,9.46,0,0,1-3.76.64,4.76,4.76,0,0,0-3,.58s-.16-.16-.24-.24c-3.34-1.19-3.86-4.25-4.8-7.19a8.08,8.08,0,0,1,7.16,3.78l.11-1.19c2.31.77,4-.25,4.4-2.65l.92,3.23A5.83,5.83,0,0,1,1006.53,550.62Z" transform="translate(-884.53 -435.16)"/><path class="cls-4" d="M997.88,485.05v4.69l-.38,0L985,475.91h3.54l3.57,1.3.46.17a13.53,13.53,0,0,1,5.31,6.75l.06.67Z" transform="translate(-884.53 -435.16)"/><path class="cls-10" d="M977.59,566.19h.51l1.57,3.32c1.12-1.64,2.91-1.84,4.67-2.42a5.77,5.77,0,0,1-3.84,5l2.49.12-2.41,2.34h-6.44c-.82-.6-1.71-1.14-1.7-2.34l1.95-.11a4.56,4.56,0,0,1-3.43-4,6.12,6.12,0,0,1,4.85,1.47Z" transform="translate(-884.53 -435.16)"/><path class="cls-10" d="M938.12,572.21c0-.14.07-.37,0-.41a4.71,4.71,0,0,1-2-3.09c1.48-.43,2-.27,4.28,1.23l2-3.84,1.65,3.6a5.59,5.59,0,0,1,4.09-2.11,6.25,6.25,0,0,1-2.9,4.61h4.24c-.57.78-1.14,1.57-1.7,2.36h-8.19a14.18,14.18,0,0,1-1.16-1.3A3.55,3.55,0,0,1,938.12,572.21Z" transform="translate(-884.53 -435.16)"/><path class="cls-7" d="M957.78,585.93c.25-.19.51-.54.75-.54,2.28.06,3.55-1.52,5.14-2.78s1-2.91,1.09-4.43l4-2.12.31.24a10.67,10.67,0,0,0-.35,1.64c-.32,4.37-3.08,6.67-6.87,8.1.81.09,1.62.21,2.42.26s1.32,0,2.16,0c-3,2.84-13.1,2.76-16.4.17a6.68,6.68,0,0,1,.95-.16c1.92,0,3.83,0,5.74,0A3.6,3.6,0,0,0,957.78,585.93Z" transform="translate(-884.53 -435.16)"/><path class="cls-10" d="M926.21,554.9c-1.11,0-2.22.14-3.32.05a15,15,0,0,1-2.78-.67c-.25-.07-.42-.35-.66-.5-1.33-.87-1.55-.78-2,1.07-.69-.74-1.26-1.32-1.81-1.92-.29-.32-.48-.79-.83-1a1.42,1.42,0,0,1-.72-1.6l2.94,2.54.29.45.12-.07-.16-.62c.6-1.7,1.2-3.39,1.81-5.09,0,.24-.06.57.07.7a12.32,12.32,0,0,0,1.72,1.51c.1.07.52-.31.79-.48l.9,3.3c1-3.26,3.85-3.91,6.39-5l.33.22c-.68,2.06-1.32,4.14-2.06,6.18C927.13,554.39,926.57,554.61,926.21,554.9Z" transform="translate(-884.53 -435.16)"/><path class="cls-2" d="M947.77,574.56c.56-.79,1.13-1.58,1.7-2.36l20.76,0c-.46.39-1.55-.19-1.54,1l1.31.93-.92.42-8.88.09h-.48Z" transform="translate(-884.53 -435.16)"/><path class="cls-2" d="M932.88,574.56h-18.1V572.2h16.84Z" transform="translate(-884.53 -435.16)"/><path class="cls-2" d="M988.05,572.21h16.71v2.33H986.59C987.08,573.77,987.57,573,988.05,572.21Z" transform="translate(-884.53 -435.16)"/><path class="cls-1" d="M911.52,542.45h5a10.75,10.75,0,0,0,1.27.16,70.59,70.59,0,0,0,8-.06c2.35-.27,3.53,1.16,4.92,2.46l-18.7,0,1.85-2.31Z" transform="translate(-884.53 -435.16)"/><path class="cls-1" d="M995.72,543.61l11.15-.06-1.18.17c1.31.29,1.73,1.36,2.28,2.3l-15.36,0Z" transform="translate(-884.53 -435.16)"/><path class="cls-2" d="M995.72,543.61,992.61,546H982v-2.38Z" transform="translate(-884.53 -435.16)"/><path class="cls-2" d="M908.28,557.25a34.44,34.44,0,0,0,4.43,0,3,3,0,0,1,2.89,1.58,1.58,1.58,0,0,0,1.36.66c.89.09,1.77.26,2.65.4H907.68c0-.76,0-1.46,0-2.16C907.72,557.54,908.08,557.4,908.28,557.25Z" transform="translate(-884.53 -435.16)"/><path class="cls-2" d="M911.52,542.45l2.32.29L912,545.05h-7.12v-2.6Z" transform="translate(-884.53 -435.16)"/><path class="cls-2" d="M930.69,545c-1.39-1.3-2.57-2.73-4.92-2.46a70.59,70.59,0,0,1-8,.06,10.75,10.75,0,0,1-1.27-.16c5.76,0,11.52,0,17.27-.05,1.38,0,1,1,1.07,1.68s-.29,1-1.07,1C932.77,545,931.73,545,930.69,545Z" transform="translate(-884.53 -435.16)"/><path class="cls-8" d="M1001.86,551.23c-.42,2.4-2.09,3.42-4.4,2.65l2.43-6.25.51,0Z" transform="translate(-884.53 -435.16)"/><path class="cls-7" d="M911.34,595.49c-.11.51-.21,1-.35,1.51-.31,1.09-.65,2.18-1,3.26l-5.67-4.77Z" transform="translate(-884.53 -435.16)"/><path class="cls-1" d="M932.88,574.56l-1.26-2.36h6.5a3.55,3.55,0,0,0,.3,1,14.18,14.18,0,0,0,1.16,1.3Z" transform="translate(-884.53 -435.16)"/><path class="cls-2" d="M1008,546c-.55-.94-1-2-2.28-2.3l1.18-.17h5l.28,0c.05.78.1,1.56.15,2.46Z" transform="translate(-884.53 -435.16)"/><path class="cls-7" d="M1009.12,601.59c-.14-.68,1-1.69-.21-1.9.08-.83.16-1.59.24-2.36l5.16-1.33.1.22Z" transform="translate(-884.53 -435.16)"/><path class="cls-1" d="M988.05,572.21c-.48.78-1,1.56-1.46,2.33h-6l2.41-2.34Z" transform="translate(-884.53 -435.16)"/><path class="cls-2" d="M959.77,619.84a2,2,0,0,1-1.95,1.85,1.9,1.9,0,1,1,.11-3.8A1.9,1.9,0,0,1,959.77,619.84Z" transform="translate(-884.53 -435.16)"/><path class="cls-8" d="M1029.57,575.51a6,6,0,0,0-3.25-1.75l5.56-4.44Z" transform="translate(-884.53 -435.16)"/><path class="cls-7" d="M920.22,586.21c-.27.17-.53.49-.8.49-1.62,0-1.86,1-1.73,2.27-.48-1.68-1-3.37-1.43-5.05l-.5-2,.24-.12.72.51Z" transform="translate(-884.53 -435.16)"/><path class="cls-7" d="M1000.84,589.56a5.39,5.39,0,0,0-1.2-.81,18.62,18.62,0,0,0-2.24-.5,12.13,12.13,0,0,0,1.7-1.27c.73-.75,1.34-1.6,2.08-2.5A7.51,7.51,0,0,1,1000.84,589.56Z" transform="translate(-884.53 -435.16)"/><path class="cls-1" d="M969.08,574.53l.92-.42-1.31-.93c0-1.15,1.08-.57,1.54-1h2.21c0,1.2.88,1.74,1.7,2.34Z" transform="translate(-884.53 -435.16)"/><path class="cls-8" d="M1015.59,569.52l-1.28-1.94-.18,1.67-1.74.18c.74-1.81,1.47-3.63,2.23-5.48A14.06,14.06,0,0,1,1015.59,569.52Z" transform="translate(-884.53 -435.16)"/><path class="cls-9" d="M1014.21,513.64V499.2l.45,1.47h0l.05.7q0,7.75-.05,15.5c0,.67,0,1.35,0,2-.06-1.29-.11-2.59-.19-3.88C1014.38,514.55,1014.28,514.09,1014.21,513.64Z" transform="translate(-884.53 -435.16)"/><path class="cls-8" d="M921.71,549.29c-.27.17-.69.55-.79.48a12.32,12.32,0,0,1-1.72-1.51c-.13-.13-.05-.46-.07-.7a6.59,6.59,0,0,1,.32-.88c.36-.72.83-.58,1.13,0C921,547.52,921.34,548.42,921.71,549.29Z" transform="translate(-884.53 -435.16)"/><path class="cls-11" d="M916.72,582.28l-.72-.51-.24.12.5,2c-.16.3-.44.6-.45.91,0,1.29,0,2.59,0,3.89a3.09,3.09,0,0,1-.39,1,20,20,0,0,0-.5-8.18l.67-.48h0Z" transform="translate(-884.53 -435.16)"/><path class="cls-11" d="M1019,526.09c.45,1.18.9,2.36,1.36,3.53.14.35.33.68.5,1-.15.23-.31.46-.46.7-.47-1.05-.91-2.11-1.4-3.14-.09-.19-.34-.3-.52-.44,0-.17,0-.34,0-.5Z" transform="translate(-884.53 -435.16)"/><path class="cls-12" d="M1035.35,540.49c0-.09,0-.18-.07-.26,0-2.92,0-5.83,0-8.74,0-.29-.25-.58-.39-.87l.43-.76.22.06c0,2.08,0,4.17,0,6.25,0,1.22,0,2.44,0,3.66A2.17,2.17,0,0,1,1035.35,540.49Z" transform="translate(-884.53 -435.16)"/><path class="cls-8" d="M892,571.43l-1.08.09c-.07.42-.14.8-.2,1.18l-1.18-2.52.24-.31Z" transform="translate(-884.53 -435.16)"/><path class="cls-11" d="M900,541.22a2,2,0,0,0,0-.26c.86-.75,1-.12,1,.55,0,1.5,0,3,0,4.5-.09-.81-.17-1.62-.26-2.43l-.15-1.29C900.31,541.93,900.14,541.57,900,541.22Z" transform="translate(-884.53 -435.16)"/><path class="cls-7" d="M1008.92,597.38c-.27.12-.55.37-.81.35-1.25-.06-2.49-.2-3.74-.31Z" transform="translate(-884.53 -435.16)"/><path class="cls-11" d="M914.81,581.28l-.44-1c.52,0,1.18-.16,1.19.72h0Z" transform="translate(-884.53 -435.16)"/><path class="cls-8" d="M890.76,572.72c1,.17.41.92.51,1.42Z" transform="translate(-884.53 -435.16)"/><path class="cls-8" d="M893,571.87l-.76-.37Z" transform="translate(-884.53 -435.16)"/><path class="cls-11" d="M914.37,580.3l-.49-.93Z" transform="translate(-884.53 -435.16)"/><path class="cls-7" d="M1008.69,601.85l.36-.21Z" transform="translate(-884.53 -435.16)"/><path class="cls-7" d="M996.65,588.69l0,.27h0l-.64,0Z" transform="translate(-884.53 -435.16)"/><path class="cls-1" d="M1012.16,543.56l-.28,0Z" transform="translate(-884.53 -435.16)"/><path class="cls-7" d="M920.59,586.56l-.23-.23Z" transform="translate(-884.53 -435.16)"/><path class="cls-7" d="M920.73,586.8l-.14-.22Z" transform="translate(-884.53 -435.16)"/><path class="cls-7" d="M997.18,588.37l-.2.14Z" transform="translate(-884.53 -435.16)"/><path class="cls-7" d="M996.93,588.53l-.27.16Z" transform="translate(-884.53 -435.16)"/><path class="cls-7" d="M996.68,589l.1.1-.06,0a.3.3,0,0,1,0-.08Z" transform="translate(-884.53 -435.16)"/><path class="cls-12" d="M978.68,538.77c-2.87,1-5.75,1.9-8.61,2.89-3.09,1.07-6.15,2.21-9.25,3.24a2.74,2.74,0,0,1-1.72-.08c-5.44-2.08-10.85-4.2-16.27-6.33a21.19,21.19,0,0,0-2.54-1c-.95-.23-.93-.73-.81-1.49.14-.94.71-.63,1.25-.54a2.33,2.33,0,0,0,.59,0,5.25,5.25,0,0,1,4,1.22,18.25,18.25,0,0,0,9,3.55,46.38,46.38,0,0,0,8,.43c3.83-.19,7.61-.89,10.86-3.17a31.78,31.78,0,0,0,2.44-2.07h4.82C980.84,537.67,980.8,537.73,978.68,538.77Z" transform="translate(-884.53 -435.16)"/><path class="cls-12" d="M980.4,518.37c-.07,1.11-.16,2.22-.18,3.33,0,.59-.21.86-.83.85-1.79,0-3.58,0-5.36,0a3.38,3.38,0,0,1-1.35-.63c-.44-.25-.85-.56-1.28-.84-.15-.11-.29-.3-.47-.34-2.57-.63-5.14-1.24-7.72-1.86v-.09h-.08l-.61-.11c1.2-.33,2.39-.68,3.6-1s2.57-.63,3.85-.95c.67-.1,1.34-.17,2-.31,2.39-.52,4.77-1.08,7.16-1.59a6.76,6.76,0,0,1,1.29,0Z" transform="translate(-884.53 -435.16)"/><path class="cls-9" d="M962.51,518.65l.61.11a.2.2,0,0,0,.09.09c2.58.62,5.15,1.23,7.72,1.86.18,0,.32.23.47.34l-2.72.21-.63.92c-2.94-.47-5.87-1.1-8.84-1.36a17,17,0,0,0-7.83,1.32,8.48,8.48,0,0,1-1.25.32c-.17-.27-.27-.67-.51-.79a16.1,16.1,0,0,0-1.92-.66,16.4,16.4,0,0,1,7.31-2.37,20.94,20.94,0,0,0,2.32.34,25.7,25.7,0,0,0,2.91-.06C961,518.87,961.75,518.74,962.51,518.65Z" transform="translate(-884.53 -435.16)"/><path class="cls-9" d="M980.4,518.37V514.8a6.76,6.76,0,0,0-1.29,0c-2.39.51-4.77,1.07-7.16,1.59-.65.14-1.32.21-2,.31l-1.23-.11,0-.21,4.75-2-1.58-.48,2.64-.59.72-1.12c.29.16.74.26.94.54.55.78,1.19.86,2,.14l4-.6v2.27c-.05.71-.13,1.41-.15,2.11s-.06,1.29-1,1.13C980.84,517.8,980.6,518.18,980.4,518.37Z" transform="translate(-884.53 -435.16)"/><path class="cls-12" d="M942.64,553.28c-1.27,0-2.54,0-3.81-.07-.31,0-.88-.28-.88-.45-.08-1.68-.07-3.37-.08-5l34.09.15c2.55,0,5.1-.05,7.65-.09v5.52h-3.12c-.48,0-1-.06-1.43-.06h-30.4C944,553.22,943.31,553.26,942.64,553.28Z" transform="translate(-884.53 -435.16)"/><path class="cls-12" d="M955,518.64A16.39,16.39,0,0,0,947.7,521h0l-.87.51-2,1.43c-1.23,0-2.47,0-3.7-.05a10.42,10.42,0,0,1-1.87-.46c0-.48,0-1,0-1.44,0-2.9.05-5.79.07-8.69a8.74,8.74,0,0,1,1,.24l10.38,3.73c1.73.63,3.47,1.24,5.37,1.91Z" transform="translate(-884.53 -435.16)"/><path class="cls-9" d="M939.34,512.32c0,2.9,0,5.79-.07,8.69,0,.48,0,1,0,1.44h-.08l-.07,0c0-1,0-1.92,0-2.87,0-1.9-.05-1.94-2.08-2-.07,1.61-.15,3.22-.23,4.84l0-12.93c0-.13.13-.25.2-.38,0,.67,0,1.34,0,2,0,1.1.9,1.57,1.91,1a6.34,6.34,0,0,1,.73-.26l.05.18Z" transform="translate(-884.53 -435.16)"/><path class="cls-3" d="M944.8,523l2-1.43.87-.51h0a16.1,16.1,0,0,1,1.92.66c.24.12.34.52.51.79l0,0a.22.22,0,0,0-.14.11.14.14,0,0,1-.13.12.24.24,0,0,0-.15.13l-2,1.52Z" transform="translate(-884.53 -435.16)"/><path class="cls-1" d="M1005.56,594l.67-.52.18.4-.85.12Z" transform="translate(-884.53 -435.16)"/><path class="cls-13" d="M936.93,509.12l3.73,1v-2.56H925.89l1.05-.55a26.43,26.43,0,0,1-.06-3.55,16.26,16.26,0,0,1,.82-3.64c.47-1.39,1.13-2.72,1.72-4.1.26.13.5.25.73.38a5.48,5.48,0,0,0-1.22,5.56,5.66,5.66,0,0,0,7.87,3.52c1.73-.73,3.67-3.58,3.44-5.34a6.13,6.13,0,0,0-3.44-5.06,5.57,5.57,0,0,0-6.1.78v-1.67l.24.18a7,7,0,0,0,1.35-1.17,61,61,0,0,1,9.8-10.69c.35-.31,1-.23,1.58-.34.13.07.36.11.39.21a12.38,12.38,0,0,1-.19,7.91,12.78,12.78,0,0,1-4,5.15l-.44.19,0,.3h10.92a8.49,8.49,0,0,1-1.2,1.33c-2.41,1.82-3,4.4-2.83,7.16,0,.91-.06,1.47-.88,1.75.62,1.26,1.57,1.76,2.63,1.37.14.76.21,1.33.37,1.87.25.82.56,1.62.86,2.42.11.3.27.57.5,1l.72-4.49a17.57,17.57,0,0,1,0,1.92,1.25,1.25,0,0,0,1,1.48c2.06.85,4,1.89,6.1,2.75a3,3,0,0,0,2.55.12c2.14-1,4.37-1.75,6.59-2.56,1.15-.41,1.83-1,1.65-2.37-.11-.89-.33-1.14-1.2-1.12-2.92,0-5.83,0-8.75,0a7.57,7.57,0,0,1-1.14-.2c3.35,0,6.7,0,10,0a6.83,6.83,0,0,1,1.75.6c.45-.92,2.77-1.23,1.49-3.37,0,0,.06-.14.07-.22a18,18,0,0,0,0-2.54c-.23-1.77-.46-3.54-1.84-4.91a6,6,0,0,1-.8-1.53c-1.48-.12-2-.38-2.37-1.2.26.15.52.42.79.42,3.42,0,6.85,0,10.38,0a2.91,2.91,0,0,0-.25-.63,12.5,12.5,0,0,1-2.26-9,8.23,8.23,0,0,1,1.81-5c.3.18.6.36.88.55s.39.47.53.44c1.85-.34,2.33,1.45,3.37,2.25a52.81,52.81,0,0,1,8.94,9.05c.54.68,1.16,1.29,1.73,1.94a.7.7,0,0,1,.18.31c.4,2.18,2.13,3.63,3,5.53a5.5,5.5,0,0,1,.45,3.81c-.28,1.15-.55,2.3-.82,3.46q-10.83,0-21.66.05a9.27,9.27,0,0,0-1.37.21l-.35,2.07,4.16-1.36,1,.53-1.07,1.89c-.67-.67-1.25-.92-1.79,0l-.19,0-1,.47h0l-1.44.49h0l-2.14.78c-1,.38-2,.74-3,1.14s-2.19.92-3.29,1.39v.58l1.68-.53a3.62,3.62,0,0,1,.55-.2l7.32-1.63,1.58.48-4.75,2,0,.21,1.23.11c-1.28.32-2.57.62-3.85.95s-2.4.66-3.6,1c-.76.09-1.51.22-2.27.27a25.7,25.7,0,0,1-2.91.06,20.94,20.94,0,0,1-2.32-.34l1.12-.44c-1.9-.67-3.64-1.28-5.37-1.91l-10.38-3.73a8.74,8.74,0,0,0-1-.24l.26-.23-.05-.18a6.34,6.34,0,0,0-.73.26c-1,.52-1.89.05-1.91-1C936.9,510.46,936.92,509.79,936.93,509.12Zm49.56-2c3,.3,6.12-3.08,6-5.72-.17-2.86-3-5.87-5.92-5.77a5.87,5.87,0,0,0-5.71,5.71A5.81,5.81,0,0,0,986.49,507.12Zm-44,2.64c-.44,1.07.2,1.27.88,1.52,3.13,1.14,6.26,2.31,9.4,3.46.61.23,1.24.4,1.86.59l.1-.28Zm5.19.24a8.78,8.78,0,0,0,0-1.48c0-.25-.29-.67-.46-.67-1.76-.05-3.53,0-5.44,0Zm14.15,6.3-.24-.6-1.23.56.22.51Z" transform="translate(-884.53 -435.16)"/><path class="cls-12" d="M971.47,508.31a9.27,9.27,0,0,1,1.37-.21q10.83,0,21.66-.05c1.23,0,2.47,0,3.71,0a5,5,0,0,1,1.09.27l-6.68,0H982Z" transform="translate(-884.53 -435.16)"/><path class="cls-11" d="M937.48,555.61l.47-.37c.76,0,1.51.06,2.27.07H979.6c1.27,1.21,2.57,2.39,3.78,3.66a2.72,2.72,0,0,1,.62,1.44,23.06,23.06,0,0,1,.17,3,4.26,4.26,0,0,1-.29,1.07c-6.71,0-13.42-.05-20.13-.05-9.55,0-19.1,0-28.65,0-.08-1.7-.48-3.47-.14-5.08.27-1.3,1.45-2.4,2.23-3.59Zm43.35,4.79c-1.19-.85-1.39-2.21-3-2.2-11.16.07-22.31,0-33.47,0h-1.26v2.16Zm-44.46,0H941v-2C937.73,558.05,937.49,558.13,936.37,560.39Z" transform="translate(-884.53 -435.16)"/><path class="cls-5" d="M979.6,555.32H940.22c-.76,0-1.51,0-2.27-.07,1.14,0,2.28,0,3.41-.14a5.55,5.55,0,0,0,1.28-.44l-1-.76,1-.62c.67,0,1.35-.06,2-.06h30.4c.48,0,1,0,1.43.06l-3.14,1.24c1.14.22,2.11.45,3.1.58S978.55,555.25,979.6,555.32Z" transform="translate(-884.53 -435.16)"/><path class="cls-5" d="M935.1,564.47c9.55,0,19.1,0,28.65,0,6.71,0,13.42,0,20.13.05a6.2,6.2,0,0,1-1.11.21H936.2A5.36,5.36,0,0,1,935.1,564.47Z" transform="translate(-884.53 -435.16)"/><path class="cls-5" d="M937.48,555.61l-.29.19Z" transform="translate(-884.53 -435.16)"/><path class="cls-9" d="M922.12,488.86l-.07-.7Z" transform="translate(-884.53 -435.16)"/><path class="cls-9" d="M949.94,522.61a.22.22,0,0,1,.14-.11A.11.11,0,0,1,949.94,522.61Z" transform="translate(-884.53 -435.16)"/><path class="cls-9" d="M949.66,522.86a.24.24,0,0,1,.15-.13Z" transform="translate(-884.53 -435.16)"/><path class="cls-12" d="M975.28,509l1.3-.36v2.8l.18,1.58h.5l.45-.15.52,0c-.81.72-1.45.64-2-.14-.2-.28-.65-.38-.94-.54l-.72,1.12v-2.12l-1.18.2c.54-.91,1.12-.66,1.79,0l1.07-1.89Z" transform="translate(-884.53 -435.16)"/><path class="cls-13" d="M963.21,518.85a.2.2,0,0,1-.09-.09h.08Z" transform="translate(-884.53 -435.16)"/><path class="cls-9" d="M946.51,475.13a23,23,0,0,0-2.69,1.43c-.62.44-.91.28-1.24-.23a.88.88,0,0,1-.1-.22c-.28-1.13-2-2-1.2-3.16.62-.9,2.05-1.23,3.13-1.81l.47-.17,2.13-.78.51-.19,2.85-.76,1-.09,2.16-.45.72,0a9.24,9.24,0,0,1,1.16-.16,51,51,0,0,1,13.72,1.12l.45.05,4.05,1.24h0l1.21.49.91.45a13.33,13.33,0,0,1,1.17.69c.62.46,1.21.95,1.82,1.43a.17.17,0,0,0-.05.19l-.43.77a.16.16,0,0,0-.06.18l-1.41,2.23-.94-.06-2.88-1.43-.44-.23-2.92-1.22-.7-.26-2.2-.62-.09-.05h-.11l-2.2-.44-.09-.05h-.1a22.51,22.51,0,0,0-2.42-.38,27.71,27.71,0,0,0-8.94.59h0l-5.52,1.7h0l-.5.07Z" transform="translate(-884.53 -435.16)"/><path class="cls-9" d="M947.7,521l-.87.51Z" transform="translate(-884.53 -435.16)"/><path class="cls-6" d="M951.78,495.27c2.83-5,11.24-4.47,13.69-.61l.23.22,0,.05c.34.82.89,1.08,2.37,1.2a6,6,0,0,0,.8,1.53c1.38,1.37,1.61,3.14,1.84,4.91a18,18,0,0,1,0,2.54c0,.08-.1.18-.07.22,1.28,2.14-1,2.45-1.49,3.37a6.83,6.83,0,0,0-1.75-.6c-3.35,0-6.7,0-10,0h-6.78l-.72,4.49c-.23-.47-.39-.74-.5-1-.3-.8-.61-1.6-.86-2.42-.16-.54-.23-1.11-.37-1.87-1.06.39-2-.11-2.63-1.37.82-.28.92-.84.88-1.75-.13-2.76.42-5.34,2.83-7.16a8.49,8.49,0,0,0,1.2-1.33Zm7,10.67c2.67.2,6.07-2.72,6-6a5.86,5.86,0,0,0-11.72-.12A6.28,6.28,0,0,0,958.73,505.94Zm11,.8-.08.2c.06,0,.15.1.19.08a.2.2,0,0,0,.08-.19C969.91,506.78,969.8,506.77,969.73,506.74Z" transform="translate(-884.53 -435.16)"/><path class="cls-12" d="M951.78,495.27l-1.4.36H939.46l0-.3.44-.19c.1.06.19.17.28.17Z" transform="translate(-884.53 -435.16)"/><path class="cls-12" d="M961.88,516.3l-1.25.47-.22-.51,1.23-.56Z" transform="translate(-884.53 -435.16)"/><path class="cls-12" d="M962.38,515.72l1.68,0-1.68.53Z" transform="translate(-884.53 -435.16)"/><path class="cls-12" d="M970.77,512.41l-2.14.78Z" transform="translate(-884.53 -435.16)"/><path class="cls-12" d="M972.21,511.93l-1.44.49Z" transform="translate(-884.53 -435.16)"/><path class="cls-12" d="M973.2,511.46l-1,.47Z" transform="translate(-884.53 -435.16)"/><path class="cls-13" d="M959.82,485.28c5.08-.23,9,1.91,12.38,5.41.53.55.48.93,0,1.39-.2.19-.39.4-.58.6-.93,1-1.38,1-2.36,0a15,15,0,0,0-6.69-3.87,11.46,11.46,0,0,0-8.86,1.43,35.27,35.27,0,0,0-3.82,3.13c-.14.11-.39.29-.45.25a11.77,11.77,0,0,1-2.26-1.8c-.19-.22.19-1.17.56-1.57A15,15,0,0,1,959.82,485.28Z" transform="translate(-884.53 -435.16)"/><path class="cls-13" d="M970,481.15l.52.07.53.41.47.08c.39.25.78.51,1.19.72,1.14.62,1.16.9.62,2.15-.46,1.06-1,1.34-2.06.77a22.28,22.28,0,0,0-11.92-2.89,26.78,26.78,0,0,0-6.4,1.42c-2.14.68-4.17,1.68-6.35,2.59a15.11,15.11,0,0,1-.93-2.24,1.3,1.3,0,0,1,.56-1.07c.88-.56,1.85-1,2.78-1.46l.92-.29a27.57,27.57,0,0,1,12.69-1.83A63.38,63.38,0,0,1,970,481.15Z" transform="translate(-884.53 -435.16)"/><path class="cls-13" d="M965.7,494.88l-.23-.22Z" transform="translate(-884.53 -435.16)"/><path class="cls-1" d="M980.83,560.4h-37.7v-2.16h1.26c11.16,0,22.31,0,33.47,0C979.44,558.19,979.64,559.55,980.83,560.4Z" transform="translate(-884.53 -435.16)"/><path class="cls-1" d="M936.37,560.39c1.12-2.26,1.36-2.34,4.62-2v2Z" transform="translate(-884.53 -435.16)"/><path class="cls-13" d="M969.73,506.74c.07,0,.18,0,.19.09a.2.2,0,0,1-.08.19s-.13,0-.19-.08Z" transform="translate(-884.53 -435.16)"/></svg>