<svg id="Layer_1" data-name="Layer 1" xmlns="http://www.w3.org/2000/svg" viewBox="0 0 948.66 439.16"><defs><style>.cls-1{fill:#0e46b5;}.cls-2{fill:#0e47b5;}</style></defs><path class="cls-1" d="M1100,648.36q0-36.74,0-73.47c0-5.58.6-4.85-4.66-4.88-5.5,0-11-.09-16.49,0-2.12.05-2.9-.55-2.88-2.79q.13-20.24,0-40.48c0-2.16.63-2.91,2.83-2.85,5,.13,10,.06,15,0,7.26-.09,6.13,1,6.21-6.46q.09-9,0-18c-.3-32.2,15.58-54,43.75-67.71a79.42,79.42,0,0,1,35.67-7.77c12.16.05,24.33.14,36.48-.07,3.55-.07,4.38,1,4.34,4.44-.2,13.83-.08,27.66-.09,41.48,0,4.41,0,4.33-4.65,4.25-8.31-.13-16.64-.88-24.91.56-21,3.63-24.86,15.86-26.35,29.41-.58,5.26,0,10.65,0,16,0,2.89,1.2,4,4.26,3.9,8-.21,16,0,24-.11,2.75-.05,3.72.67,3.68,3.57q-.21,19.49,0,39c0,3-1.09,3.58-3.77,3.53-7.49-.12-15,0-22.49,0-5.64,0-5.14-.62-5.15,5q0,51,0,101.94,0,22.74,0,45.48c0,4.76,0,4.78-5,4.78-18.49,0-37-.1-55.47.07-3.51,0-4.4-.94-4.38-4.4C1100.07,698,1100,673.18,1100,648.36Z" transform="translate(-428.44 -288.06)"/><path class="cls-1" d="M809.52,569.35l94.69-109c1.48,1,.85,2.43.86,3.57q.09,27.25.08,54.5c0,5.48,0,5.49,5.28,5.49l61,0c4.55,0,4.57,0,4.57,4.54,0,12.16-.17,24.33,0,36.49.07,3.64-1.2,4.3-4.53,4.32-20.66.1-41.32.52-62,.62-3.42,0-4.47.86-4.45,4.39.14,28.33,0,56.67.09,85,0,13,7.75,21.49,20.72,23,11,1.26,21.89,1.13,32.65-1.86a43.48,43.48,0,0,0,17.7-10c1.23,1.12.67,2.5.68,3.67.05,14-.08,28,.13,42,0,3.13-1.11,4.23-3.87,5.1-12.29,3.89-24.75,6.36-37.72,6-9.33-.23-18.69.34-28-.21-17.19-1-32.41-6.9-44.15-20.09-8.42-9.45-13-20.74-15.33-33-2.4-12.52-2-25.19-2-37.83q.15-30.5.3-61c0-4.82,0-4.83-4.94-4.84-8.84,0-17.67,0-26.5,0C813.29,570.1,811.62,570.57,809.52,569.35Z" transform="translate(-428.44 -288.06)"/><path class="cls-1" d="M1276,572.42c8.72-8.9,15-18.17,22.2-26.66,3-3.55,6.27-6.9,9.45-10.3,16.4-17.51,50.77-15.2,66.35,1.89,2.74,3,3.74,5.72,2.68,9.75-3.14,12-5.9,24.16-8.85,36.24-1.08,4.4-1.28,4.58-5.61,3.21-3.94-1.24-7.78-2.8-11.68-4.19a62.15,62.15,0,0,0-29-2.83c-13.56,1.75-23.59,9.53-31.35,20.28a72.66,72.66,0,0,0-14.11,42.84c-.17,26.5,0,53-.07,79.48,0,5.67.62,5-5.09,5q-27.5,0-55,0c-4.77,0-4.79,0-4.79-4.9q0-96.72,0-193.45c0-4.85,0-4.87,4.81-4.87,18.49,0,37,.1,55.48-.11,3.71,0,4.74.83,4.68,4.63C1275.86,542.7,1276,557,1276,572.42Z" transform="translate(-428.44 -288.06)"/><path class="cls-2" d="M587.65,290.64a536.48,536.48,0,0,0-45.47,47.72C510,377,485.32,419.68,473.66,469.11a270,270,0,0,0-7.06,73.73c2.27,54.09,18.7,104.21,42,152.46,4.34,9,9,17.76,13.78,26.52.85,1.56,2.06,3,2.22,5.18h-39c-7.67,0-15.34-.23-23,.1-3.7.16-5-1.2-6.15-4.58a562.66,562.66,0,0,1-22.83-89.4,375.43,375.43,0,0,1-4.52-85.52c3.54-54.4,20.28-104.53,50.55-150,21.58-32.43,48.09-60.34,77.91-85.23,9.44-7.88,18.93-15.71,29.26-22.44Z" transform="translate(-428.44 -288.06)"/><path class="cls-2" d="M998.13,625.51q0-48.22,0-96.46c0-5.12,0-5.14,5-5.14,18.49,0,37,.08,55.48-.1,3.54,0,4.37,1,4.36,4.44q-.15,97.21,0,194.43c0,3.39-.72,4.52-4.32,4.48-18.66-.19-37.32-.09-56-.1-4.55,0-4.58,0-4.58-4.58Q998.13,674,998.13,625.51Z" transform="translate(-428.44 -288.06)"/><path class="cls-1" d="M605.75,369.05c-.78-31.33,25-62.66,62.72-62.76,37.48-.11,62.9,31.07,62.89,62.76,0,34.68-28.84,63.29-63.15,63.05C633.73,431.85,605,403.1,605.75,369.05Z" transform="translate(-428.44 -288.06)"/><path class="cls-2" d="M542.14,379.12c-4.9,11.23-10.3,22.22-14.53,33.74-11.51,31.33-16.87,63.62-14.27,96.92,3.33,42.53,18.64,80.74,44.21,114.69,34.93,46.36,79.71,79.24,135.29,96.9,6.91,2.2,14,3.68,21.08,5.63h-6c-34,0-68-.08-102,.11a15,15,0,0,1-10.29-3.88c-14.79-12.15-27.24-26.44-38.33-41.93a327.79,327.79,0,0,1-52.78-114.52,243.08,243.08,0,0,1-6.39-76.24,205.14,205.14,0,0,1,43.2-112.19Z" transform="translate(-428.44 -288.06)"/><path class="cls-2" d="M547.64,447.55c2.2,4.54,2.46,9.47,3.37,14.23,5.81,30.08,13.94,59.37,28.06,86.78,21.19,41.13,54.5,66.54,99.28,77.45,17.28,4.21,34.84,6.87,52.36,9.72,2.91.48,3.39,1.5,3.35,4-.14,8.16-.26,16.34,0,24.49.14,3.64-1.41,4-4.35,3.93-12.92-.25-25.3-3.39-37.49-7.24-34.16-10.78-64.38-28.26-89.63-53.87S561.12,550.54,553,515.43A237.43,237.43,0,0,1,547.64,447.55Z" transform="translate(-428.44 -288.06)"/><path class="cls-1" d="M994.63,457.6c0-19.68,17.34-35.49,37-35,17.23.46,35.77,15.71,34.43,38.11A36.08,36.08,0,0,1,1028,494.19C1009.47,493.14,994.12,476.84,994.63,457.6Z" transform="translate(-428.44 -288.06)"/><path class="cls-2" d="M586.9,289.89a1.67,1.67,0,0,1,1.84-1.1l.28.22c0,.89-.83,1.16-1.37,1.63Z" transform="translate(-428.44 -288.06)"/><path class="cls-2" d="M541.36,378.35c.36-.45.81-1.36,1.24-1,.72.57.35,1.35-.46,1.79Z" transform="translate(-428.44 -288.06)"/><path class="cls-2" d="M588.74,288.79c.08-.54.47-1,.87-.55s-.14.69-.59.77Z" transform="translate(-428.44 -288.06)"/></svg>